<svg width="175" height="40" viewBox="0 0 175 40" fill="none" xmlns="http://www.w3.org/2000/svg">
<path d="M155 2H20C10.0589 2 2 10.0589 2 20C2 29.9411 10.0589 38 20 38H155C164.941 38 173 29.9411 173 20C173 10.0589 164.941 2 155 2Z" fill="white" stroke="url(#paint0_linear)" stroke-width="4"/>
<path d="M28.3 26.14C29.1667 26.14 29.9933 25.9733 30.78 25.64C31.5667 25.2933 32.2267 24.82 32.76 24.22L33.76 25.26C33.0667 25.98 32.24 26.5467 31.28 26.96C30.32 27.36 29.3133 27.56 28.26 27.56C27.2467 27.56 26.2933 27.3733 25.4 27C24.52 26.6267 23.7533 26.12 23.1 25.48C22.4467 24.8267 21.9333 24.06 21.56 23.18C21.1867 22.2867 21 21.34 21 20.34C21 19.34 21.1867 18.4 21.56 17.52C21.9333 16.6267 22.4467 15.86 23.1 15.22C23.7533 14.5667 24.52 14.0533 25.4 13.68C26.2933 13.3067 27.2467 13.12 28.26 13.12C29.34 13.12 30.36 13.3267 31.32 13.74C32.2933 14.14 33.12 14.7 33.8 15.42L32.78 16.5C32.2333 15.8867 31.5533 15.4067 30.74 15.06C29.94 14.7133 29.1133 14.54 28.26 14.54C27.46 14.54 26.7067 14.6933 26 15C25.3067 15.2933 24.7067 15.7 24.2 16.22C23.6933 16.7267 23.2933 17.34 23 18.06C22.7067 18.7667 22.56 19.5267 22.56 20.34C22.56 21.1533 22.7067 21.92 23 22.64C23.2933 23.3467 23.6933 23.96 24.2 24.48C24.72 24.9867 25.3267 25.3933 26.02 25.7C26.7267 25.9933 27.4867 26.14 28.3 26.14ZM34.963 22.32C34.963 21.6 35.0963 20.92 35.363 20.28C35.6296 19.64 35.9896 19.0867 36.443 18.62C36.9096 18.1533 37.4563 17.7867 38.083 17.52C38.7096 17.2533 39.3763 17.12 40.083 17.12C40.7896 17.12 41.4496 17.2533 42.063 17.52C42.6896 17.7867 43.2296 18.1533 43.683 18.62C44.1496 19.0867 44.5163 19.64 44.783 20.28C45.0496 20.92 45.183 21.6 45.183 22.32C45.183 23.0533 45.0496 23.74 44.783 24.38C44.5163 25.02 44.1496 25.5733 43.683 26.04C43.2296 26.5067 42.6896 26.8733 42.063 27.14C41.4496 27.4067 40.7896 27.54 40.083 27.54C39.3763 27.54 38.7096 27.4067 38.083 27.14C37.4563 26.8733 36.9096 26.5067 36.443 26.04C35.9896 25.5733 35.6296 25.02 35.363 24.38C35.0963 23.74 34.963 23.0533 34.963 22.32ZM40.083 26.22C40.5896 26.22 41.063 26.12 41.503 25.92C41.9563 25.72 42.343 25.4467 42.663 25.1C42.9963 24.74 43.2563 24.3267 43.443 23.86C43.6296 23.38 43.723 22.8667 43.723 22.32C43.723 21.7733 43.6296 21.2667 43.443 20.8C43.2563 20.32 42.9963 19.9067 42.663 19.56C42.343 19.2133 41.9563 18.94 41.503 18.74C41.063 18.54 40.5896 18.44 40.083 18.44C39.5763 18.44 39.0963 18.54 38.643 18.74C38.203 18.94 37.8163 19.2133 37.483 19.56C37.163 19.9067 36.903 20.32 36.703 20.8C36.5163 21.2667 36.423 21.7733 36.423 22.32C36.423 22.8667 36.5163 23.38 36.703 23.86C36.8896 24.3267 37.143 24.74 37.463 25.1C37.7963 25.4467 38.1896 25.72 38.643 25.92C39.0963 26.12 39.5763 26.22 40.083 26.22ZM47.2394 27.34V17.32H48.7194V18.5C49.106 18.0467 49.566 17.7067 50.0994 17.48C50.6327 17.24 51.226 17.12 51.8794 17.12C53.0127 17.12 53.9394 17.48 54.6594 18.2C55.3794 18.92 55.7394 19.8533 55.7394 21V27.34H54.2794V21.3C54.2794 20.42 54.026 19.72 53.5194 19.2C53.0127 18.68 52.3327 18.42 51.4794 18.42C50.8794 18.42 50.3394 18.5533 49.8594 18.82C49.3927 19.0867 49.0127 19.4667 48.7194 19.96V27.34H47.2394ZM58.2159 27.34V17.32H59.6959V18.5C60.0826 18.0467 60.5426 17.7067 61.0759 17.48C61.6093 17.24 62.2026 17.12 62.8559 17.12C63.9893 17.12 64.9159 17.48 65.6359 18.2C66.3559 18.92 66.7159 19.8533 66.7159 21V27.34H65.2559V21.3C65.2559 20.42 65.0026 19.72 64.4959 19.2C63.9893 18.68 63.3093 18.42 62.4559 18.42C61.8559 18.42 61.3159 18.5533 60.8359 18.82C60.3693 19.0867 59.9893 19.4667 59.6959 19.96V27.34H58.2159ZM77.6325 26.28C77.0725 26.6933 76.4858 27.0067 75.8725 27.22C75.2725 27.42 74.6125 27.52 73.8925 27.52C73.1725 27.52 72.4925 27.3867 71.8525 27.12C71.2258 26.8533 70.6792 26.4867 70.2125 26.02C69.7592 25.5533 69.3992 25.0067 69.1325 24.38C68.8658 23.74 68.7325 23.0533 68.7325 22.32C68.7325 21.6 68.8592 20.9267 69.1125 20.3C69.3792 19.6733 69.7325 19.1267 70.1725 18.66C70.6125 18.1933 71.1325 17.8267 71.7325 17.56C72.3458 17.2933 72.9925 17.16 73.6725 17.16C74.3392 17.16 74.9592 17.2933 75.5325 17.56C76.1192 17.8267 76.6192 18.1933 77.0325 18.66C77.4592 19.1267 77.7925 19.6733 78.0325 20.3C78.2858 20.9267 78.4125 21.6 78.4125 22.32V22.78H70.1925C70.2992 23.7667 70.7058 24.5867 71.4125 25.24C72.1192 25.8933 72.9658 26.22 73.9525 26.22C74.4725 26.22 74.9792 26.14 75.4725 25.98C75.9658 25.82 76.3792 25.5933 76.7125 25.3L77.6325 26.28ZM73.6325 18.46C72.7658 18.46 72.0125 18.7533 71.3725 19.34C70.7458 19.9267 70.3658 20.68 70.2325 21.6H76.9325C76.7992 20.72 76.4192 19.98 75.7925 19.38C75.1792 18.7667 74.4592 18.46 73.6325 18.46ZM85.1811 26.18C85.7144 26.18 86.2278 26.0733 86.7211 25.86C87.2144 25.6467 87.6744 25.3333 88.1011 24.92L89.0211 25.92C88.4878 26.4267 87.8878 26.82 87.2211 27.1C86.5544 27.38 85.8611 27.52 85.1411 27.52C84.4344 27.52 83.7678 27.3867 83.1411 27.12C82.5144 26.8533 81.9744 26.4867 81.5211 26.02C81.0678 25.5533 80.7078 25 80.4411 24.36C80.1744 23.72 80.0411 23.04 80.0411 22.32C80.0411 21.6 80.1744 20.9267 80.4411 20.3C80.7078 19.66 81.0678 19.1067 81.5211 18.64C81.9744 18.1733 82.5144 17.8067 83.1411 17.54C83.7678 17.26 84.4344 17.12 85.1411 17.12C85.8611 17.12 86.5611 17.26 87.2411 17.54C87.9344 17.82 88.5411 18.2067 89.0611 18.7L88.1211 19.78C87.7211 19.3667 87.2611 19.0467 86.7411 18.82C86.2211 18.5933 85.6944 18.48 85.1611 18.48C84.6544 18.48 84.1744 18.58 83.7211 18.78C83.2678 18.98 82.8744 19.2533 82.5411 19.6C82.2211 19.9467 81.9678 20.3533 81.7811 20.82C81.5944 21.2867 81.5011 21.7867 81.5011 22.32C81.5011 22.8667 81.5944 23.38 81.7811 23.86C81.9811 24.3267 82.2411 24.7333 82.5611 25.08C82.8944 25.4133 83.2878 25.68 83.7411 25.88C84.1944 26.08 84.6744 26.18 85.1811 26.18ZM92.1903 25.1V18.58H90.0303V17.32H92.1903V14.78L93.6503 14.4V17.32H96.6703V18.58H93.6503V24.72C93.6503 25.2533 93.7703 25.64 94.0103 25.88C94.2503 26.1067 94.6436 26.22 95.1903 26.22C95.4703 26.22 95.717 26.2 95.9303 26.16C96.157 26.12 96.397 26.0533 96.6503 25.96V27.26C96.397 27.3533 96.1103 27.42 95.7903 27.46C95.4836 27.5 95.1836 27.52 94.8903 27.52C94.0236 27.52 93.357 27.3133 92.8903 26.9C92.4236 26.4867 92.1903 25.8867 92.1903 25.1ZM106.572 27.34H105.012L101.992 13.34H103.552L105.932 24.9L109.392 13.34H110.892L114.352 24.86L116.752 13.34H118.252L115.232 27.34H113.672L110.132 15.48L106.572 27.34ZM122.47 27.52C121.376 27.52 120.483 27.24 119.79 26.68C119.11 26.12 118.77 25.3933 118.77 24.5C118.77 23.5667 119.13 22.8267 119.85 22.28C120.57 21.72 121.543 21.44 122.77 21.44C123.303 21.44 123.816 21.5 124.31 21.62C124.816 21.74 125.283 21.9067 125.71 22.12V20.8C125.71 20 125.483 19.4 125.03 19C124.576 18.5867 123.916 18.38 123.05 18.38C122.556 18.38 122.056 18.4533 121.55 18.6C121.056 18.7333 120.51 18.9533 119.91 19.26L119.35 18.12C120.07 17.7733 120.736 17.52 121.35 17.36C121.963 17.2 122.576 17.12 123.19 17.12C124.456 17.12 125.43 17.42 126.11 18.02C126.803 18.62 127.15 19.48 127.15 20.6V27.34H125.71V26.36C125.256 26.7467 124.756 27.04 124.21 27.24C123.676 27.4267 123.096 27.52 122.47 27.52ZM120.19 24.46C120.19 25.02 120.423 25.48 120.89 25.84C121.37 26.1867 121.983 26.36 122.73 26.36C123.33 26.36 123.876 26.2667 124.37 26.08C124.863 25.8933 125.31 25.6 125.71 25.2V23.32C125.296 23.04 124.85 22.84 124.37 22.72C123.903 22.5867 123.383 22.52 122.81 22.52C122.01 22.52 121.37 22.7 120.89 23.06C120.423 23.4067 120.19 23.8733 120.19 24.46ZM131.102 13V27.34H129.622V13.34L131.102 13ZM135.106 13V27.34H133.626V13.34L135.106 13ZM146.07 26.28C145.51 26.6933 144.923 27.0067 144.31 27.22C143.71 27.42 143.05 27.52 142.33 27.52C141.61 27.52 140.93 27.3867 140.29 27.12C139.663 26.8533 139.117 26.4867 138.65 26.02C138.197 25.5533 137.837 25.0067 137.57 24.38C137.303 23.74 137.17 23.0533 137.17 22.32C137.17 21.6 137.297 20.9267 137.55 20.3C137.817 19.6733 138.17 19.1267 138.61 18.66C139.05 18.1933 139.57 17.8267 140.17 17.56C140.783 17.2933 141.43 17.16 142.11 17.16C142.777 17.16 143.397 17.2933 143.97 17.56C144.557 17.8267 145.057 18.1933 145.47 18.66C145.897 19.1267 146.23 19.6733 146.47 20.3C146.723 20.9267 146.85 21.6 146.85 22.32V22.78H138.63C138.737 23.7667 139.143 24.5867 139.85 25.24C140.557 25.8933 141.403 26.22 142.39 26.22C142.91 26.22 143.417 26.14 143.91 25.98C144.403 25.82 144.817 25.5933 145.15 25.3L146.07 26.28ZM142.07 18.46C141.203 18.46 140.45 18.7533 139.81 19.34C139.183 19.9267 138.803 20.68 138.67 21.6H145.37C145.237 20.72 144.857 19.98 144.23 19.38C143.617 18.7667 142.897 18.46 142.07 18.46ZM149.768 25.1V18.58H147.608V17.32H149.768V14.78L151.228 14.4V17.32H154.248V18.58H151.228V24.72C151.228 25.2533 151.348 25.64 151.588 25.88C151.828 26.1067 152.222 26.22 152.768 26.22C153.048 26.22 153.295 26.2 153.508 26.16C153.735 26.12 153.975 26.0533 154.228 25.96V27.26C153.975 27.3533 153.688 27.42 153.368 27.46C153.062 27.5 152.762 27.52 152.468 27.52C151.602 27.52 150.935 27.3133 150.468 26.9C150.002 26.4867 149.768 25.8867 149.768 25.1Z" fill="url(#paint1_linear)"/>
<defs>
<linearGradient id="paint0_linear" x1="4" y1="8.10723" x2="75.8921" y2="105.911" gradientUnits="userSpaceOnUse">
<stop stop-color="#FF00B8"/>
<stop offset="0.505208" stop-color="#FF655B"/>
<stop offset="1" stop-color="#FFC700"/>
</linearGradient>
<linearGradient id="paint1_linear" x1="20.12" y1="10.6771" x2="78.6202" y2="89.8588" gradientUnits="userSpaceOnUse">
<stop stop-color="#FF00B8"/>
<stop offset="0.505208" stop-color="#FF655B"/>
<stop offset="1" stop-color="#FFC700"/>
</linearGradient>
</defs>
</svg>
