<svg width="162" height="26" viewBox="0 0 162 26" fill="none" xmlns="http://www.w3.org/2000/svg">
<rect width="162" height="26" rx="13" fill="#9CFF83"/>
<path d="M67.54 20V6H77.56V7.36H69.08V12.26H74.62V13.6H69.08V18.64H77.64V20H67.54ZM82.7442 20.18C81.6509 20.18 80.7576 19.9 80.0642 19.34C79.3842 18.78 79.0442 18.0533 79.0442 17.16C79.0442 16.2267 79.4042 15.4867 80.1242 14.94C80.8442 14.38 81.8176 14.1 83.0442 14.1C83.5776 14.1 84.0909 14.16 84.5842 14.28C85.0909 14.4 85.5576 14.5667 85.9842 14.78V13.46C85.9842 12.66 85.7576 12.06 85.3042 11.66C84.8509 11.2467 84.1909 11.04 83.3242 11.04C82.8309 11.04 82.3309 11.1133 81.8242 11.26C81.3309 11.3933 80.7842 11.6133 80.1842 11.92L79.6242 10.78C80.3442 10.4333 81.0109 10.18 81.6242 10.02C82.2376 9.86 82.8509 9.78 83.4642 9.78C84.7309 9.78 85.7042 10.08 86.3842 10.68C87.0776 11.28 87.4242 12.14 87.4242 13.26V20H85.9842V19.02C85.5309 19.4067 85.0309 19.7 84.4842 19.9C83.9509 20.0867 83.3709 20.18 82.7442 20.18ZM80.4642 17.12C80.4642 17.68 80.6976 18.14 81.1642 18.5C81.6442 18.8467 82.2576 19.02 83.0042 19.02C83.6042 19.02 84.1509 18.9267 84.6442 18.74C85.1376 18.5533 85.5842 18.26 85.9842 17.86V15.98C85.5709 15.7 85.1242 15.5 84.6442 15.38C84.1776 15.2467 83.6576 15.18 83.0842 15.18C82.2842 15.18 81.6442 15.36 81.1642 15.72C80.6976 16.0667 80.4642 16.5333 80.4642 17.12ZM89.8967 20V9.98H91.3767V11.4C91.6701 10.88 92.0567 10.48 92.5367 10.2C93.0167 9.90667 93.5634 9.76 94.1767 9.76C94.3634 9.76 94.5301 9.77333 94.6767 9.8C94.8234 9.81333 94.9701 9.84667 95.1167 9.9V11.26C94.9434 11.2067 94.7701 11.1667 94.5967 11.14C94.4234 11.1 94.2501 11.08 94.0767 11.08C93.4634 11.08 92.9234 11.26 92.4567 11.62C91.9901 11.9667 91.6301 12.4733 91.3767 13.14V20H89.8967ZM96.8108 20V9.98H98.2908V11.16C98.6774 10.7067 99.1374 10.3667 99.6708 10.14C100.204 9.9 100.797 9.78 101.451 9.78C102.584 9.78 103.511 10.14 104.231 10.86C104.951 11.58 105.311 12.5133 105.311 13.66V20H103.851V13.96C103.851 13.08 103.597 12.38 103.091 11.86C102.584 11.34 101.904 11.08 101.051 11.08C100.451 11.08 99.9108 11.2133 99.4308 11.48C98.9641 11.7467 98.5841 12.1267 98.2908 12.62V20H96.8108ZM115.944 21.5V19.58C115.024 19.5 114.164 19.2733 113.364 18.9C112.564 18.5133 111.864 17.9933 111.264 17.34L112.184 16.36C112.704 16.92 113.284 17.3733 113.924 17.72C114.564 18.0667 115.238 18.2867 115.944 18.38V13.46L115.244 13.32C113.911 13.0267 112.964 12.6267 112.404 12.12C111.844 11.6 111.564 10.8667 111.564 9.92C111.564 8.86667 111.971 8.01333 112.784 7.36C113.611 6.69333 114.664 6.36 115.944 6.36V4.82H116.964V6.4C117.724 6.49333 118.478 6.68667 119.224 6.98C119.971 7.26 120.664 7.63333 121.304 8.1L120.544 9.22C119.931 8.79333 119.324 8.45333 118.724 8.2C118.124 7.94667 117.538 7.77333 116.964 7.68V12.3L117.644 12.44C119.071 12.76 120.078 13.18 120.664 13.7C121.264 14.22 121.564 14.9533 121.564 15.9C121.564 16.9533 121.131 17.8267 120.264 18.52C119.411 19.2 118.311 19.5667 116.964 19.62V21.5H115.944ZM115.624 12.04L115.944 12.1V7.6C115.051 7.61333 114.324 7.82 113.764 8.22C113.218 8.62 112.944 9.14667 112.944 9.8C112.944 10.4267 113.138 10.9067 113.524 11.24C113.911 11.56 114.611 11.8267 115.624 12.04ZM117.264 13.72L116.964 13.66V18.42C117.884 18.3667 118.644 18.1133 119.244 17.66C119.844 17.2067 120.144 16.64 120.144 15.96C120.144 15.3467 119.938 14.88 119.524 14.56C119.124 14.2267 118.371 13.9467 117.264 13.72ZM132.812 16.18C132.812 16.7533 132.685 17.2867 132.432 17.78C132.179 18.2733 131.825 18.7 131.372 19.06C130.932 19.42 130.399 19.7 129.772 19.9C129.145 20.1 128.465 20.2 127.732 20.2C126.732 20.2 125.799 20.0333 124.932 19.7C124.065 19.3667 123.292 18.8733 122.612 18.22L123.592 17.26C124.205 17.8333 124.839 18.2533 125.492 18.52C126.159 18.7867 126.905 18.92 127.732 18.92C128.785 18.92 129.645 18.66 130.312 18.14C130.992 17.62 131.332 16.9533 131.332 16.14C131.332 15.38 130.999 14.76 130.332 14.28C129.679 13.8 128.825 13.56 127.772 13.56H126.592V12.34H127.692C128.572 12.34 129.305 12.08 129.892 11.56C130.492 11.0267 130.792 10.3733 130.792 9.6C130.792 8.88 130.485 8.28 129.872 7.8C129.272 7.32 128.525 7.08 127.632 7.08C126.885 7.08 126.212 7.21333 125.612 7.48C125.012 7.73333 124.399 8.16667 123.772 8.78L122.792 7.8C123.472 7.13333 124.219 6.63333 125.032 6.3C125.859 5.95333 126.739 5.78 127.672 5.78C128.325 5.78 128.932 5.88 129.492 6.08C130.065 6.26667 130.552 6.52667 130.952 6.86C131.352 7.19333 131.665 7.59333 131.892 8.06C132.132 8.51333 132.252 9.01333 132.252 9.56C132.252 10.2667 132.039 10.9067 131.612 11.48C131.185 12.0533 130.599 12.4933 129.852 12.8C130.732 13.0533 131.445 13.48 131.992 14.08C132.539 14.68 132.812 15.38 132.812 16.18ZM140.256 20.2C139.416 20.2 138.643 20.0267 137.936 19.68C137.243 19.32 136.643 18.8267 136.136 18.2C135.643 17.56 135.256 16.8 134.976 15.92C134.696 15.0267 134.556 14.0533 134.556 13C134.556 11.9467 134.696 10.98 134.976 10.1C135.256 9.20667 135.643 8.44667 136.136 7.82C136.643 7.18 137.25 6.68667 137.956 6.34C138.663 5.98 139.43 5.8 140.256 5.8C141.096 5.8 141.863 5.98 142.556 6.34C143.263 6.68667 143.87 7.18 144.376 7.82C144.883 8.44667 145.276 9.20667 145.556 10.1C145.836 10.98 145.976 11.9467 145.976 13C145.976 14.0533 145.836 15.0267 145.556 15.92C145.276 16.8 144.883 17.56 144.376 18.2C143.87 18.8267 143.263 19.32 142.556 19.68C141.863 20.0267 141.096 20.2 140.256 20.2ZM140.256 18.88C141.55 18.88 142.583 18.3467 143.356 17.28C144.13 16.2133 144.516 14.7867 144.516 13C144.516 11.2133 144.13 9.78667 143.356 8.72C142.583 7.64 141.55 7.1 140.256 7.1C138.976 7.1 137.95 7.64 137.176 8.72C136.403 9.78667 136.016 11.2133 136.016 13C136.016 14.7867 136.403 16.2133 137.176 17.28C137.95 18.3467 138.976 18.88 140.256 18.88Z" fill="black"/>
<circle cx="15" cy="13" r="6" fill="#00D248"/>
</svg>
