<svg width="454" height="479" viewBox="0 0 454 479" fill="none" xmlns="http://www.w3.org/2000/svg">
<g filter="url(#filter0_d)">
<rect x="6.5" y="2.5" width="441" height="466" rx="99.5" fill="white" stroke="url(#paint0_linear)" stroke-width="5"/>
<path d="M316.544 204.007C319.125 204.007 321.706 204.007 324.296 204.007C324.482 204.072 324.659 204.174 324.855 204.193C326.038 204.314 327.222 204.417 328.405 204.528C328.983 204.584 329.085 204.696 329.178 205.283C329.355 206.391 329.523 207.5 329.7 208.608C330.306 212.464 330.921 216.329 331.526 220.185C331.592 220.633 331.787 220.865 332.234 220.977C335.878 221.909 339.325 223.315 342.605 225.15C343.071 225.411 343.425 225.401 343.863 225.094C345.698 223.809 347.553 222.542 349.398 221.275C351.792 219.627 354.187 217.978 356.581 216.339C357.103 215.975 357.206 215.985 357.662 216.339C359.759 217.913 361.725 219.636 363.598 221.471C365.293 223.138 366.868 224.917 368.378 226.761C368.89 227.385 368.89 227.385 368.406 228.056C365.471 232.08 362.545 236.103 359.61 240.127C359.265 240.593 359.265 240.611 359.582 241.114C360.719 242.949 361.743 244.849 362.629 246.824C363.355 248.454 364.008 250.112 364.511 251.835C364.632 252.263 364.865 252.496 365.312 252.552C365.88 252.636 366.449 252.757 367.017 252.859C371.462 253.67 375.906 254.48 380.351 255.29C381.05 255.421 381.096 255.467 381.189 256.157C381.394 257.805 381.59 259.463 381.804 261.112C381.823 261.289 381.935 261.447 382 261.615C382 264.474 382 267.324 382 270.184C381.786 270.361 381.814 270.603 381.795 270.845C381.748 271.404 381.702 271.46 381.133 271.562C380.901 271.609 380.668 271.637 380.425 271.674C377.071 272.205 373.717 272.736 370.353 273.267C368.974 273.481 367.604 273.723 366.225 273.928C365.815 273.984 365.564 274.152 365.517 274.571C365.508 274.673 365.48 274.776 365.452 274.869C365.042 276.396 364.688 277.933 364.222 279.442C363.439 281.966 362.405 284.388 361.138 286.707C360.896 287.154 360.896 287.508 361.203 287.918C361.594 288.43 361.939 288.98 362.312 289.511C364.101 292.1 365.89 294.68 367.679 297.269C368.471 298.415 369.263 299.56 370.045 300.715C370.353 301.172 370.353 301.2 370.008 301.656C369.775 301.964 369.533 302.28 369.291 302.588C367.008 305.559 364.474 308.306 361.688 310.812C361.147 311.296 360.588 311.781 360.029 312.246C359.675 312.544 359.554 312.544 359.172 312.274C358.771 311.995 358.37 311.697 357.97 311.408C354.373 308.791 350.767 306.164 347.171 303.556C346.49 303.063 346.481 303.063 345.782 303.519C341.925 306.034 337.778 307.915 333.343 309.154C332.849 309.294 332.626 309.545 332.533 310.048C332.207 311.939 331.843 313.82 331.489 315.711C330.911 318.831 330.324 321.961 329.747 325.081C329.616 325.789 329.607 325.817 328.88 325.91C328.051 326.013 327.222 326.078 326.402 326.18C326.197 326.208 325.992 326.311 325.796 326.376C322.367 326.376 318.929 326.376 315.5 326.376C315.276 326.124 314.969 326.199 314.689 326.162C314.298 326.115 314.186 326.022 314.102 325.64C314.046 325.379 314.009 325.109 313.963 324.839C313.217 320.145 312.472 315.441 311.726 310.747C311.615 310.039 311.577 310.02 310.897 309.843C309.499 309.48 308.092 309.145 306.723 308.707C303.564 307.71 300.564 306.36 297.722 304.655C297.237 304.367 296.874 304.376 296.427 304.702C295.588 305.317 294.722 305.875 293.864 306.472C290.547 308.754 287.23 311.035 283.913 313.317C283.429 313.653 283.401 313.634 282.944 313.271C280.028 310.97 277.335 308.437 274.866 305.661C274.167 304.879 273.505 304.05 272.844 303.24C272.518 302.839 272.527 302.727 272.825 302.29C272.862 302.234 272.909 302.178 272.946 302.122C275.853 298.126 278.76 294.13 281.686 290.144C281.994 289.725 282.012 289.408 281.751 288.961C281.071 287.806 280.4 286.642 279.804 285.44C278.313 282.432 277.176 279.284 276.422 276.014C276.31 275.53 276.058 275.316 275.574 275.232C272.993 274.785 270.421 274.319 267.85 273.853C265.455 273.425 263.07 272.997 260.675 272.568C260.097 272.466 260.069 272.438 260.004 271.851C259.93 271.078 259.874 270.295 259.808 269.513C259.79 269.28 259.808 269.029 259.613 268.852C259.613 266.579 259.613 264.297 259.613 262.025C259.846 261.81 259.79 261.531 259.818 261.261C259.939 259.957 260.051 258.653 260.19 257.358C260.246 256.799 260.312 256.762 260.889 256.66C261.504 256.557 262.128 256.464 262.753 256.362C265.921 255.859 269.098 255.365 272.266 254.862C273.477 254.666 274.679 254.461 275.891 254.284C276.254 254.229 276.487 254.08 276.562 253.707C276.58 253.595 276.627 253.474 276.655 253.362C277.801 249.162 279.487 245.185 281.761 241.459C281.975 241.114 281.956 240.863 281.724 240.537C280.82 239.242 279.925 237.938 279.031 236.634C277.046 233.738 275.052 230.832 273.077 227.926C272.76 227.46 272.769 227.432 273.105 226.994C273.142 226.938 273.189 226.892 273.235 226.836C275.546 223.976 278.071 221.322 280.857 218.919C281.77 218.127 282.72 217.382 283.662 216.627C284.072 216.301 284.174 216.311 284.612 216.609C284.668 216.646 284.724 216.693 284.78 216.73C288.824 219.636 292.867 222.533 296.902 225.457C297.349 225.783 297.694 225.821 298.188 225.541C301.235 223.79 304.449 222.421 307.822 221.443C308.316 221.303 308.801 221.163 309.294 221.033C309.611 220.949 309.798 220.772 309.853 220.446C309.881 220.26 309.928 220.083 309.956 219.897C310.618 216.301 311.27 212.716 311.931 209.12C312.174 207.816 312.407 206.512 312.649 205.208C312.761 204.594 312.835 204.556 313.431 204.5C314.326 204.426 315.22 204.314 316.115 204.202C316.283 204.184 316.404 204.072 316.544 204.007ZM304.104 264.782C304.077 273.714 311.186 281.547 320.848 281.566C330.268 281.584 337.732 274.021 337.732 264.782C337.732 255.235 329.747 247.727 320.429 247.914C311.903 248.091 304.095 255.253 304.104 264.782Z" stroke="url(#paint1_linear)" stroke-width="4" stroke-miterlimit="10"/>
<path d="M252.303 311.079C254.884 311.079 257.465 311.079 260.056 311.079C260.242 311.145 260.419 311.247 260.615 311.266C261.798 311.387 262.981 311.489 264.165 311.601C264.742 311.657 264.845 311.769 264.938 312.356C265.115 313.464 265.283 314.572 265.46 315.681C266.066 319.537 266.681 323.402 267.286 327.258C267.351 327.705 267.547 327.938 267.994 328.05C271.638 328.981 275.085 330.388 278.365 332.223C278.831 332.483 279.185 332.474 279.623 332.167C281.458 330.881 283.313 329.615 285.157 328.348C287.552 326.699 289.947 325.051 292.341 323.411C292.863 323.048 292.966 323.057 293.422 323.411C295.519 324.985 297.485 326.709 299.358 328.543C301.053 330.211 302.628 331.99 304.138 333.834C304.65 334.458 304.65 334.458 304.165 335.129C301.23 339.152 298.305 343.176 295.37 347.2C295.025 347.665 295.025 347.684 295.342 348.187C296.478 350.022 297.503 351.922 298.389 353.897C299.115 355.526 299.768 357.184 300.271 358.908C300.392 359.336 300.625 359.569 301.072 359.625C301.64 359.709 302.209 359.83 302.777 359.932C307.222 360.742 311.666 361.553 316.111 362.363C316.809 362.493 316.856 362.54 316.949 363.229C317.154 364.878 317.35 366.536 317.564 368.184C317.583 368.361 317.695 368.52 317.76 368.687C317.76 371.547 317.76 374.397 317.76 377.256C317.546 377.433 317.574 377.675 317.555 377.918C317.508 378.476 317.462 378.532 316.893 378.635C316.66 378.681 316.427 378.709 316.185 378.747C312.831 379.278 309.477 379.808 306.113 380.339C304.734 380.554 303.364 380.796 301.985 381.001C301.575 381.057 301.324 381.224 301.277 381.643C301.268 381.746 301.24 381.848 301.212 381.941C300.802 383.469 300.448 385.006 299.982 386.515C299.199 389.039 298.165 391.46 296.898 393.78C296.655 394.227 296.655 394.581 296.963 394.99C297.354 395.503 297.699 396.052 298.072 396.583C299.861 399.172 301.65 401.752 303.439 404.342C304.231 405.487 305.023 406.633 305.805 407.788C306.113 408.244 306.113 408.272 305.768 408.729C305.535 409.036 305.293 409.353 305.051 409.66C302.768 412.631 300.233 415.379 297.447 417.885C296.907 418.369 296.348 418.853 295.789 419.319C295.435 419.617 295.314 419.617 294.932 419.347C294.531 419.067 294.13 418.769 293.73 418.481C290.133 415.863 286.527 413.237 282.931 410.629C282.25 410.135 282.241 410.135 281.542 410.592C277.685 413.106 273.538 414.988 269.103 416.227C268.609 416.366 268.386 416.618 268.293 417.121C267.966 419.012 267.603 420.893 267.249 422.784C266.671 425.904 266.084 429.034 265.507 432.154C265.376 432.862 265.367 432.89 264.64 432.983C263.811 433.085 262.981 433.15 262.162 433.253C261.957 433.281 261.752 433.383 261.556 433.448C258.127 433.448 254.689 433.448 251.26 433.448C251.036 433.197 250.729 433.271 250.449 433.234C250.058 433.188 249.946 433.095 249.862 432.713C249.806 432.452 249.769 432.182 249.722 431.912C248.977 427.217 248.232 422.514 247.486 417.819C247.374 417.111 247.337 417.093 246.657 416.916C245.259 416.553 243.852 416.217 242.483 415.78C239.324 414.783 236.324 413.432 233.482 411.728C232.997 411.439 232.634 411.449 232.187 411.774C231.348 412.389 230.482 412.948 229.624 413.544C226.307 415.826 222.99 418.108 219.673 420.39C219.189 420.725 219.161 420.707 218.704 420.343C215.788 418.043 213.095 415.509 210.626 412.734C209.927 411.951 209.265 411.123 208.604 410.312C208.278 409.912 208.287 409.8 208.585 409.362C208.622 409.306 208.669 409.25 208.706 409.194C211.613 405.199 214.52 401.203 217.446 397.217C217.754 396.797 217.772 396.481 217.511 396.034C216.831 394.879 216.16 393.714 215.564 392.513C214.073 389.504 212.936 386.356 212.182 383.087C212.07 382.603 211.818 382.388 211.334 382.305C208.753 381.858 206.181 381.392 203.609 380.926C201.215 380.498 198.829 380.069 196.435 379.641C195.857 379.538 195.829 379.51 195.764 378.924C195.689 378.15 195.634 377.368 195.568 376.586C195.55 376.353 195.568 376.101 195.373 375.924C195.373 373.652 195.373 371.37 195.373 369.097C195.606 368.883 195.55 368.604 195.578 368.333C195.699 367.029 195.811 365.725 195.95 364.431C196.006 363.872 196.071 363.835 196.649 363.732C197.264 363.63 197.888 363.537 198.513 363.434C201.681 362.931 204.858 362.438 208.026 361.935C209.237 361.739 210.439 361.534 211.651 361.357C212.014 361.301 212.247 361.152 212.321 360.78C212.34 360.668 212.387 360.547 212.415 360.435C213.561 356.234 215.247 352.257 217.521 348.532C217.735 348.187 217.716 347.935 217.483 347.609C216.58 346.315 215.685 345.011 214.791 343.707C212.806 340.81 210.812 337.904 208.837 334.998C208.52 334.532 208.529 334.504 208.865 334.067C208.902 334.011 208.948 333.964 208.995 333.908C211.306 331.049 213.831 328.394 216.617 325.991C217.53 325.2 218.48 324.455 219.421 323.7C219.831 323.374 219.934 323.383 220.372 323.681C220.428 323.719 220.484 323.765 220.54 323.803C224.583 326.709 228.627 329.605 232.662 332.53C233.109 332.856 233.454 332.893 233.948 332.614C236.995 330.863 240.209 329.493 243.582 328.516C244.076 328.376 244.56 328.236 245.054 328.106C245.371 328.022 245.557 327.845 245.613 327.519C245.641 327.333 245.688 327.156 245.716 326.969C246.377 323.374 247.03 319.788 247.691 316.193C247.933 314.889 248.166 313.585 248.409 312.281C248.52 311.666 248.595 311.629 249.191 311.573C250.086 311.499 250.98 311.387 251.875 311.275C252.043 311.256 252.164 311.145 252.303 311.079ZM239.864 371.854C239.836 380.786 246.946 388.62 256.608 388.638C266.028 388.657 273.492 381.094 273.492 371.854C273.492 362.307 265.507 354.8 256.189 354.986C247.663 355.163 239.855 362.326 239.864 371.854Z" stroke="url(#paint2_linear)" stroke-width="4" stroke-miterlimit="10"/>
<path d="M161.241 152C165.242 152 169.242 152 173.257 152C173.546 152.101 173.82 152.26 174.124 152.289C175.958 152.476 177.792 152.635 179.626 152.808C180.522 152.895 180.68 153.068 180.825 153.978C181.099 155.696 181.359 157.414 181.634 159.132C182.572 165.108 183.525 171.1 184.464 177.076C184.565 177.769 184.869 178.13 185.562 178.304C191.209 179.747 196.552 181.927 201.636 184.771C202.358 185.175 202.907 185.161 203.586 184.685C206.431 182.692 209.305 180.729 212.164 178.766C215.876 176.21 219.587 173.655 223.299 171.114C224.108 170.551 224.267 170.566 224.974 171.114C228.224 173.554 231.271 176.225 234.174 179.069C236.802 181.653 239.243 184.41 241.583 187.269C242.377 188.236 242.377 188.236 241.626 189.275C237.077 195.512 232.542 201.749 227.993 207.985C227.458 208.707 227.458 208.736 227.949 209.516C229.711 212.36 231.3 215.305 232.672 218.365C233.798 220.892 234.809 223.461 235.589 226.132C235.777 226.796 236.138 227.157 236.831 227.244C237.712 227.374 238.593 227.561 239.474 227.72C246.363 228.976 253.252 230.232 260.141 231.488C261.224 231.69 261.296 231.763 261.441 232.831C261.758 235.386 262.062 237.956 262.394 240.511C262.423 240.785 262.596 241.031 262.697 241.291C262.697 245.723 262.697 250.14 262.697 254.572C262.365 254.847 262.408 255.222 262.379 255.597C262.307 256.464 262.235 256.55 261.354 256.709C260.993 256.781 260.632 256.825 260.256 256.882C255.057 257.705 249.858 258.528 244.644 259.351C242.507 259.683 240.384 260.058 238.247 260.376C237.611 260.463 237.221 260.722 237.149 261.372C237.135 261.531 237.091 261.69 237.048 261.834C236.412 264.202 235.864 266.584 235.142 268.922C233.928 272.835 232.325 276.588 230.361 280.183C229.986 280.876 229.986 281.425 230.462 282.06C231.069 282.854 231.603 283.706 232.181 284.528C234.954 288.542 237.727 292.541 240.5 296.554C241.727 298.33 242.955 300.106 244.168 301.896C244.644 302.603 244.644 302.646 244.11 303.354C243.749 303.83 243.374 304.321 242.998 304.798C239.46 309.403 235.531 313.662 231.213 317.545C230.376 318.296 229.509 319.047 228.643 319.768C228.094 320.23 227.906 320.23 227.314 319.812C226.693 319.379 226.072 318.917 225.451 318.469C219.876 314.412 214.287 310.341 208.712 306.299C207.658 305.534 207.644 305.534 206.561 306.241C200.582 310.139 194.155 313.055 187.28 314.975C186.515 315.192 186.168 315.582 186.024 316.361C185.518 319.292 184.955 322.208 184.406 325.139C183.511 329.975 182.601 334.826 181.706 339.662C181.504 340.759 181.489 340.803 180.363 340.947C179.077 341.106 177.792 341.207 176.521 341.366C176.203 341.409 175.886 341.568 175.582 341.669C170.268 341.669 164.938 341.669 159.624 341.669C159.277 341.279 158.801 341.394 158.367 341.337C157.761 341.265 157.587 341.12 157.457 340.528C157.371 340.124 157.313 339.705 157.241 339.287C156.085 332.011 154.93 324.72 153.775 317.444C153.601 316.347 153.544 316.318 152.489 316.044C150.323 315.481 148.142 314.961 146.019 314.282C141.123 312.738 136.473 310.644 132.068 308.002C131.317 307.555 130.754 307.569 130.061 308.075C128.761 309.027 127.418 309.894 126.089 310.818C120.948 314.355 115.806 317.892 110.665 321.429C109.914 321.948 109.871 321.919 109.163 321.356C104.643 317.791 100.469 313.864 96.6417 309.562C95.5586 308.349 94.5332 307.064 93.5078 305.808C93.0023 305.187 93.0168 305.014 93.4789 304.336C93.5367 304.249 93.6089 304.162 93.6667 304.076C98.1726 297.882 102.679 291.689 107.213 285.51C107.69 284.861 107.719 284.37 107.314 283.677C106.26 281.887 105.22 280.082 104.296 278.22C101.985 273.557 100.223 268.677 99.0536 263.61C98.8803 262.859 98.4903 262.527 97.7393 262.397C93.7389 261.704 89.7528 260.982 85.7668 260.26C82.0552 259.596 78.358 258.932 74.6464 258.268C73.751 258.109 73.7077 258.066 73.6066 257.157C73.491 255.958 73.4044 254.746 73.3033 253.533C73.2744 253.172 73.3033 252.782 73 252.508C73 248.985 73 245.448 73 241.926C73.3611 241.594 73.2744 241.161 73.3177 240.742C73.5055 238.721 73.6788 236.7 73.8954 234.693C73.9821 233.827 74.0832 233.769 74.9786 233.61C75.9317 233.452 76.8994 233.307 77.867 233.148C82.7773 232.369 87.7021 231.604 92.6124 230.824C94.4899 230.521 96.3529 230.203 98.2304 229.929C98.7936 229.842 99.1547 229.611 99.2702 229.034C99.2991 228.861 99.3713 228.673 99.4146 228.5C101.191 221.989 103.805 215.824 107.329 210.05C107.661 209.516 107.632 209.126 107.271 208.621C105.87 206.614 104.484 204.593 103.097 202.572C100.021 198.082 96.9306 193.578 93.8688 189.073C93.3778 188.351 93.3923 188.308 93.9122 187.63C93.9699 187.543 94.0422 187.471 94.1144 187.384C97.696 182.952 101.61 178.838 105.928 175.113C107.343 173.886 108.816 172.731 110.275 171.562C110.911 171.056 111.069 171.071 111.748 171.533C111.835 171.591 111.921 171.663 112.008 171.72C118.276 176.225 124.544 180.715 130.797 185.248C131.491 185.753 132.025 185.811 132.79 185.378C137.513 182.663 142.495 180.541 147.723 179.025C148.489 178.809 149.24 178.592 150.005 178.39C150.496 178.26 150.785 177.986 150.872 177.481C150.915 177.192 150.987 176.918 151.031 176.629C152.056 171.056 153.067 165.498 154.092 159.926C154.468 157.905 154.829 155.883 155.204 153.862C155.378 152.91 155.493 152.852 156.418 152.765C157.804 152.65 159.191 152.476 160.577 152.303C160.837 152.274 161.025 152.101 161.241 152ZM141.961 246.199C141.918 260.044 152.937 272.185 167.914 272.214C182.515 272.243 194.083 260.52 194.083 246.199C194.083 231.402 181.706 219.766 167.264 220.054C154.049 220.329 141.947 231.43 141.961 246.199Z" stroke="url(#paint3_linear)" stroke-width="4" stroke-miterlimit="10"/>
<path d="M46.5209 130V81H81.5909V85.76H51.9109V102.91H71.3009V107.6H51.9109V125.24H81.8709V130H46.5209ZM88.6756 130V94.93H93.8556V99.06C95.209 97.4733 96.819 96.2833 98.6856 95.49C100.552 94.65 102.629 94.23 104.916 94.23C108.882 94.23 112.126 95.49 114.646 98.01C117.166 100.53 118.426 103.797 118.426 107.81V130H113.316V108.86C113.316 105.78 112.429 103.33 110.656 101.51C108.882 99.69 106.502 98.78 103.516 98.78C101.416 98.78 99.5256 99.2467 97.8456 100.18C96.2123 101.113 94.8823 102.443 93.8556 104.17V130H88.6756ZM142.984 130.28C140.557 130.28 138.27 129.813 136.124 128.88C134.024 127.947 132.18 126.687 130.594 125.1C129.007 123.467 127.747 121.553 126.814 119.36C125.927 117.167 125.484 114.81 125.484 112.29C125.484 109.77 125.927 107.413 126.814 105.22C127.747 103.027 129.007 101.137 130.594 99.55C132.18 97.9167 134.047 96.6333 136.194 95.7C138.34 94.7667 140.65 94.3 143.124 94.3C145.13 94.3 147.067 94.6733 148.934 95.42C150.847 96.12 152.597 97.1233 154.184 98.43V94.93H159.294V130.84C159.294 135.32 157.987 138.75 155.374 141.13C152.76 143.557 149.027 144.77 144.174 144.77C141.747 144.77 139.344 144.443 136.964 143.79C134.584 143.183 132.414 142.297 130.454 141.13L132.694 137.07C134.794 138.19 136.73 139.007 138.504 139.52C140.324 140.033 142.144 140.29 143.964 140.29C147.277 140.29 149.797 139.497 151.524 137.91C153.25 136.323 154.114 133.99 154.114 130.91V126.22C152.527 127.527 150.777 128.53 148.864 129.23C146.997 129.93 145.037 130.28 142.984 130.28ZM130.594 112.29C130.594 114.157 130.92 115.93 131.574 117.61C132.227 119.243 133.114 120.667 134.234 121.88C135.4 123.047 136.777 123.98 138.364 124.68C139.95 125.38 141.63 125.73 143.404 125.73C145.644 125.73 147.697 125.31 149.564 124.47C151.43 123.63 152.947 122.44 154.114 120.9V103.68C152.947 102.187 151.407 101.02 149.494 100.18C147.627 99.34 145.597 98.92 143.404 98.92C141.584 98.92 139.88 99.27 138.294 99.97C136.754 100.623 135.4 101.557 134.234 102.77C133.114 103.983 132.227 105.407 131.574 107.04C130.92 108.673 130.594 110.423 130.594 112.29ZM170.699 88.21C169.766 88.21 168.949 87.86 168.249 87.16C167.549 86.46 167.199 85.6433 167.199 84.71C167.199 83.73 167.549 82.9133 168.249 82.26C168.949 81.56 169.766 81.21 170.699 81.21C171.679 81.21 172.496 81.56 173.149 82.26C173.849 82.9133 174.199 83.73 174.199 84.71C174.199 85.6433 173.849 86.46 173.149 87.16C172.496 87.86 171.679 88.21 170.699 88.21ZM173.289 94.93V130H168.109V94.93H173.289ZM182.123 130V94.93H187.303V99.06C188.656 97.4733 190.266 96.2833 192.133 95.49C194 94.65 196.076 94.23 198.363 94.23C202.33 94.23 205.573 95.49 208.093 98.01C210.613 100.53 211.873 103.797 211.873 107.81V130H206.763V108.86C206.763 105.78 205.876 103.33 204.103 101.51C202.33 99.69 199.95 98.78 196.963 98.78C194.863 98.78 192.973 99.2467 191.293 100.18C189.66 101.113 188.33 102.443 187.303 104.17V130H182.123ZM250.081 126.29C248.121 127.737 246.068 128.833 243.921 129.58C241.821 130.28 239.511 130.63 236.991 130.63C234.471 130.63 232.091 130.163 229.851 129.23C227.658 128.297 225.744 127.013 224.111 125.38C222.524 123.747 221.264 121.833 220.331 119.64C219.398 117.4 218.931 114.997 218.931 112.43C218.931 109.91 219.374 107.553 220.261 105.36C221.194 103.167 222.431 101.253 223.971 99.62C225.511 97.9867 227.331 96.7033 229.431 95.77C231.578 94.8367 233.841 94.37 236.221 94.37C238.554 94.37 240.724 94.8367 242.731 95.77C244.784 96.7033 246.534 97.9867 247.981 99.62C249.474 101.253 250.641 103.167 251.481 105.36C252.368 107.553 252.811 109.91 252.811 112.43V114.04H224.041C224.414 117.493 225.838 120.363 228.311 122.65C230.784 124.937 233.748 126.08 237.201 126.08C239.021 126.08 240.794 125.8 242.521 125.24C244.248 124.68 245.694 123.887 246.861 122.86L250.081 126.29ZM236.081 98.92C233.048 98.92 230.411 99.9467 228.171 102C225.978 104.053 224.648 106.69 224.181 109.91H247.631C247.164 106.83 245.834 104.24 243.641 102.14C241.494 99.9933 238.974 98.92 236.081 98.92ZM289.661 126.29C287.701 127.737 285.648 128.833 283.501 129.58C281.401 130.28 279.091 130.63 276.571 130.63C274.051 130.63 271.671 130.163 269.431 129.23C267.238 128.297 265.324 127.013 263.691 125.38C262.104 123.747 260.844 121.833 259.911 119.64C258.978 117.4 258.511 114.997 258.511 112.43C258.511 109.91 258.954 107.553 259.841 105.36C260.774 103.167 262.011 101.253 263.551 99.62C265.091 97.9867 266.911 96.7033 269.011 95.77C271.158 94.8367 273.421 94.37 275.801 94.37C278.134 94.37 280.304 94.8367 282.311 95.77C284.364 96.7033 286.114 97.9867 287.561 99.62C289.054 101.253 290.221 103.167 291.061 105.36C291.948 107.553 292.391 109.91 292.391 112.43V114.04H263.621C263.994 117.493 265.418 120.363 267.891 122.65C270.364 124.937 273.328 126.08 276.781 126.08C278.601 126.08 280.374 125.8 282.101 125.24C283.828 124.68 285.274 123.887 286.441 122.86L289.661 126.29ZM275.661 98.92C272.628 98.92 269.991 99.9467 267.751 102C265.558 104.053 264.228 106.69 263.761 109.91H287.211C286.744 106.83 285.414 104.24 283.221 102.14C281.074 99.9933 278.554 98.92 275.661 98.92ZM299.633 130V94.93H304.813V99.9C305.839 98.08 307.193 96.68 308.873 95.7C310.553 94.6733 312.466 94.16 314.613 94.16C315.266 94.16 315.849 94.2067 316.363 94.3C316.876 94.3467 317.389 94.4633 317.903 94.65V99.41C317.296 99.2233 316.689 99.0833 316.083 98.99C315.476 98.85 314.869 98.78 314.263 98.78C312.116 98.78 310.226 99.41 308.593 100.67C306.959 101.883 305.699 103.657 304.813 105.99V130H299.633ZM326.422 88.21C325.489 88.21 324.672 87.86 323.972 87.16C323.272 86.46 322.922 85.6433 322.922 84.71C322.922 83.73 323.272 82.9133 323.972 82.26C324.672 81.56 325.489 81.21 326.422 81.21C327.402 81.21 328.219 81.56 328.872 82.26C329.572 82.9133 329.922 83.73 329.922 84.71C329.922 85.6433 329.572 86.46 328.872 87.16C328.219 87.86 327.402 88.21 326.422 88.21ZM329.012 94.93V130H323.832V94.93H329.012ZM337.846 130V94.93H343.026V99.06C344.379 97.4733 345.989 96.2833 347.856 95.49C349.722 94.65 351.799 94.23 354.086 94.23C358.052 94.23 361.296 95.49 363.816 98.01C366.336 100.53 367.596 103.797 367.596 107.81V130H362.486V108.86C362.486 105.78 361.599 103.33 359.826 101.51C358.052 99.69 355.672 98.78 352.686 98.78C350.586 98.78 348.696 99.2467 347.016 100.18C345.382 101.113 344.052 102.443 343.026 104.17V130H337.846ZM392.154 130.28C389.727 130.28 387.44 129.813 385.294 128.88C383.194 127.947 381.35 126.687 379.764 125.1C378.177 123.467 376.917 121.553 375.984 119.36C375.097 117.167 374.654 114.81 374.654 112.29C374.654 109.77 375.097 107.413 375.984 105.22C376.917 103.027 378.177 101.137 379.764 99.55C381.35 97.9167 383.217 96.6333 385.364 95.7C387.51 94.7667 389.82 94.3 392.294 94.3C394.3 94.3 396.237 94.6733 398.104 95.42C400.017 96.12 401.767 97.1233 403.354 98.43V94.93H408.464V130.84C408.464 135.32 407.157 138.75 404.544 141.13C401.93 143.557 398.197 144.77 393.344 144.77C390.917 144.77 388.514 144.443 386.134 143.79C383.754 143.183 381.584 142.297 379.624 141.13L381.864 137.07C383.964 138.19 385.9 139.007 387.674 139.52C389.494 140.033 391.314 140.29 393.134 140.29C396.447 140.29 398.967 139.497 400.694 137.91C402.42 136.323 403.284 133.99 403.284 130.91V126.22C401.697 127.527 399.947 128.53 398.034 129.23C396.167 129.93 394.207 130.28 392.154 130.28ZM379.764 112.29C379.764 114.157 380.09 115.93 380.744 117.61C381.397 119.243 382.284 120.667 383.404 121.88C384.57 123.047 385.947 123.98 387.534 124.68C389.12 125.38 390.8 125.73 392.574 125.73C394.814 125.73 396.867 125.31 398.734 124.47C400.6 123.63 402.117 122.44 403.284 120.9V103.68C402.117 102.187 400.577 101.02 398.664 100.18C396.797 99.34 394.767 98.92 392.574 98.92C390.754 98.92 389.05 99.27 387.464 99.97C385.924 100.623 384.57 101.557 383.404 102.77C382.284 103.983 381.397 105.407 380.744 107.04C380.09 108.673 379.764 110.423 379.764 112.29Z" fill="#151371"/>
</g>
<defs>
<filter id="filter0_d" x="0" y="0" width="454" height="479" filterUnits="userSpaceOnUse" color-interpolation-filters="sRGB">
<feFlood flood-opacity="0" result="BackgroundImageFix"/>
<feColorMatrix in="SourceAlpha" type="matrix" values="0 0 0 0 0 0 0 0 0 0 0 0 0 0 0 0 0 0 127 0"/>
<feOffset dy="4"/>
<feGaussianBlur stdDeviation="2"/>
<feColorMatrix type="matrix" values="0 0 0 0 0 0 0 0 0 0 0 0 0 0 0 0 0 0 0.25 0"/>
<feBlend mode="normal" in2="BackgroundImageFix" result="effect1_dropShadow"/>
<feBlend mode="normal" in="SourceGraphic" in2="effect1_dropShadow" result="shape"/>
</filter>
<linearGradient id="paint0_linear" x1="9" y1="64.1698" x2="513.409" y2="188.528" gradientUnits="userSpaceOnUse">
<stop stop-color="#FF00B8"/>
<stop offset="0.505208" stop-color="#FF655B"/>
<stop offset="1" stop-color="#FFC700"/>
</linearGradient>
<linearGradient id="paint1_linear" x1="259.613" y1="219.713" x2="400.249" y2="256.38" gradientUnits="userSpaceOnUse">
<stop stop-color="#FF00B8"/>
<stop offset="0.505208" stop-color="#FF655B"/>
<stop offset="1" stop-color="#FFC700"/>
</linearGradient>
<linearGradient id="paint2_linear" x1="195.373" y1="326.786" x2="336.009" y2="363.452" gradientUnits="userSpaceOnUse">
<stop stop-color="#FF00B8"/>
<stop offset="0.505208" stop-color="#FF655B"/>
<stop offset="1" stop-color="#FFC700"/>
</linearGradient>
<linearGradient id="paint3_linear" x1="73" y1="176.344" x2="290.983" y2="233.176" gradientUnits="userSpaceOnUse">
<stop stop-color="#FF00B8"/>
<stop offset="0.505208" stop-color="#FF655B"/>
<stop offset="1" stop-color="#FFC700"/>
</linearGradient>
</defs>
</svg>
