<svg width="454" height="479" viewBox="0 0 454 479" fill="none" xmlns="http://www.w3.org/2000/svg">
<g filter="url(#filter0_d)">
<rect x="6.5" y="2.5" width="441" height="466" rx="99.5" fill="white" stroke="url(#paint0_linear)" stroke-width="5"/>
</g>
<path d="M71.391 106V57H76.781V106H71.391ZM86.6121 106V70.93H91.7921V75.06C93.1455 73.4733 94.7555 72.2833 96.6221 71.49C98.4888 70.65 100.565 70.23 102.852 70.23C106.819 70.23 110.062 71.49 112.582 74.01C115.102 76.53 116.362 79.7967 116.362 83.81V106H111.252V84.86C111.252 81.78 110.365 79.33 108.592 77.51C106.819 75.69 104.439 74.78 101.452 74.78C99.3521 74.78 97.4621 75.2467 95.7821 76.18C94.1488 77.1133 92.8188 78.4433 91.7921 80.17V106H86.6121ZM125.03 106V70.93H130.21V75.06C131.563 73.4733 133.173 72.2833 135.04 71.49C136.907 70.65 138.983 70.23 141.27 70.23C145.237 70.23 148.48 71.49 151 74.01C153.52 76.53 154.78 79.7967 154.78 83.81V106H149.67V84.86C149.67 81.78 148.783 79.33 147.01 77.51C145.237 75.69 142.857 74.78 139.87 74.78C137.77 74.78 135.88 75.2467 134.2 76.18C132.567 77.1133 131.237 78.4433 130.21 80.17V106H125.03ZM161.838 88.43C161.838 85.91 162.305 83.53 163.238 81.29C164.171 79.05 165.431 77.1133 167.018 75.48C168.651 73.8467 170.565 72.5633 172.758 71.63C174.951 70.6967 177.285 70.23 179.758 70.23C182.231 70.23 184.541 70.6967 186.688 71.63C188.881 72.5633 190.771 73.8467 192.358 75.48C193.991 77.1133 195.275 79.05 196.208 81.29C197.141 83.53 197.608 85.91 197.608 88.43C197.608 90.9967 197.141 93.4 196.208 95.64C195.275 97.88 193.991 99.8167 192.358 101.45C190.771 103.083 188.881 104.367 186.688 105.3C184.541 106.233 182.231 106.7 179.758 106.7C177.285 106.7 174.951 106.233 172.758 105.3C170.565 104.367 168.651 103.083 167.018 101.45C165.431 99.8167 164.171 97.88 163.238 95.64C162.305 93.4 161.838 90.9967 161.838 88.43ZM179.758 102.08C181.531 102.08 183.188 101.73 184.728 101.03C186.315 100.33 187.668 99.3733 188.788 98.16C189.955 96.9 190.865 95.4533 191.518 93.82C192.171 92.14 192.498 90.3433 192.498 88.43C192.498 86.5167 192.171 84.7433 191.518 83.11C190.865 81.43 189.955 79.9833 188.788 78.77C187.668 77.5567 186.315 76.6 184.728 75.9C183.188 75.2 181.531 74.85 179.758 74.85C177.985 74.85 176.305 75.2 174.718 75.9C173.178 76.6 171.825 77.5567 170.658 78.77C169.538 79.9833 168.628 81.43 167.928 83.11C167.275 84.7433 166.948 86.5167 166.948 88.43C166.948 90.3433 167.275 92.14 167.928 93.82C168.581 95.4533 169.468 96.9 170.588 98.16C171.755 99.3733 173.131 100.33 174.718 101.03C176.305 101.73 177.985 102.08 179.758 102.08ZM214.568 106L199.378 70.93H205.118L217.088 99.28L229.058 70.93H234.588L219.468 106H214.568ZM250.387 106.63C246.56 106.63 243.434 105.65 241.007 103.69C238.627 101.73 237.437 99.1867 237.437 96.06C237.437 92.7933 238.697 90.2033 241.217 88.29C243.737 86.33 247.144 85.35 251.437 85.35C253.304 85.35 255.1 85.56 256.827 85.98C258.6 86.4 260.234 86.9833 261.727 87.73V83.11C261.727 80.31 260.934 78.21 259.347 76.81C257.76 75.3633 255.45 74.64 252.417 74.64C250.69 74.64 248.94 74.8967 247.167 75.41C245.44 75.8767 243.527 76.6467 241.427 77.72L239.467 73.73C241.987 72.5167 244.32 71.63 246.467 71.07C248.614 70.51 250.76 70.23 252.907 70.23C257.34 70.23 260.747 71.28 263.127 73.38C265.554 75.48 266.767 78.49 266.767 82.41V106H261.727V102.57C260.14 103.923 258.39 104.95 256.477 105.65C254.61 106.303 252.58 106.63 250.387 106.63ZM242.407 95.92C242.407 97.88 243.224 99.49 244.857 100.75C246.537 101.963 248.684 102.57 251.297 102.57C253.397 102.57 255.31 102.243 257.037 101.59C258.764 100.937 260.327 99.91 261.727 98.51V91.93C260.28 90.95 258.717 90.25 257.037 89.83C255.404 89.3633 253.584 89.13 251.577 89.13C248.777 89.13 246.537 89.76 244.857 91.02C243.224 92.2333 242.407 93.8667 242.407 95.92ZM278.394 98.16V75.34H270.834V70.93H278.394V62.04L283.504 60.71V70.93H294.074V75.34H283.504V96.83C283.504 98.6967 283.924 100.05 284.764 100.89C285.604 101.683 286.98 102.08 288.894 102.08C289.874 102.08 290.737 102.01 291.484 101.87C292.277 101.73 293.117 101.497 294.004 101.17V105.72C293.117 106.047 292.114 106.28 290.994 106.42C289.92 106.56 288.87 106.63 287.844 106.63C284.81 106.63 282.477 105.907 280.844 104.46C279.21 103.013 278.394 100.913 278.394 98.16ZM302.21 64.21C301.277 64.21 300.46 63.86 299.76 63.16C299.06 62.46 298.71 61.6433 298.71 60.71C298.71 59.73 299.06 58.9133 299.76 58.26C300.46 57.56 301.277 57.21 302.21 57.21C303.19 57.21 304.007 57.56 304.66 58.26C305.36 58.9133 305.71 59.73 305.71 60.71C305.71 61.6433 305.36 62.46 304.66 63.16C304.007 63.86 303.19 64.21 302.21 64.21ZM304.8 70.93V106H299.62V70.93H304.8ZM312.024 88.43C312.024 85.91 312.49 83.53 313.424 81.29C314.357 79.05 315.617 77.1133 317.204 75.48C318.837 73.8467 320.75 72.5633 322.944 71.63C325.137 70.6967 327.47 70.23 329.944 70.23C332.417 70.23 334.727 70.6967 336.874 71.63C339.067 72.5633 340.957 73.8467 342.544 75.48C344.177 77.1133 345.46 79.05 346.394 81.29C347.327 83.53 347.794 85.91 347.794 88.43C347.794 90.9967 347.327 93.4 346.394 95.64C345.46 97.88 344.177 99.8167 342.544 101.45C340.957 103.083 339.067 104.367 336.874 105.3C334.727 106.233 332.417 106.7 329.944 106.7C327.47 106.7 325.137 106.233 322.944 105.3C320.75 104.367 318.837 103.083 317.204 101.45C315.617 99.8167 314.357 97.88 313.424 95.64C312.49 93.4 312.024 90.9967 312.024 88.43ZM329.944 102.08C331.717 102.08 333.374 101.73 334.914 101.03C336.5 100.33 337.854 99.3733 338.974 98.16C340.14 96.9 341.05 95.4533 341.704 93.82C342.357 92.14 342.684 90.3433 342.684 88.43C342.684 86.5167 342.357 84.7433 341.704 83.11C341.05 81.43 340.14 79.9833 338.974 78.77C337.854 77.5567 336.5 76.6 334.914 75.9C333.374 75.2 331.717 74.85 329.944 74.85C328.17 74.85 326.49 75.2 324.904 75.9C323.364 76.6 322.01 77.5567 320.844 78.77C319.724 79.9833 318.814 81.43 318.114 83.11C317.46 84.7433 317.134 86.5167 317.134 88.43C317.134 90.3433 317.46 92.14 318.114 93.82C318.767 95.4533 319.654 96.9 320.774 98.16C321.94 99.3733 323.317 100.33 324.904 101.03C326.49 101.73 328.17 102.08 329.944 102.08ZM354.991 106V70.93H360.171V75.06C361.524 73.4733 363.134 72.2833 365.001 71.49C366.868 70.65 368.944 70.23 371.231 70.23C375.198 70.23 378.441 71.49 380.961 74.01C383.481 76.53 384.741 79.7967 384.741 83.81V106H379.631V84.86C379.631 81.78 378.744 79.33 376.971 77.51C375.198 75.69 372.818 74.78 369.831 74.78C367.731 74.78 365.841 75.2467 364.161 76.18C362.528 77.1133 361.198 78.4433 360.171 80.17V106H354.991Z" fill="#151371"/>
<path d="M189.479 325.523C191.666 325.298 194.687 325.185 197.64 324.667C214.775 321.713 226.769 312.086 233.961 296.35C236.801 290.127 238.605 283.589 239.484 276.78C240.612 268.1 239.507 259.758 235.652 251.913C231.255 243.007 225.664 234.801 218.9 227.564C213.174 221.431 209.86 214.578 209.634 206.213C209.522 201.704 209.522 197.173 209.093 192.686C208.89 190.477 207.808 188.357 207.132 186.193C202.533 182.383 197.437 179.452 191.463 178.776C183.617 177.874 176.47 180.196 170.067 184.66C168.309 185.877 166.46 187.208 166.144 189.71C165.265 196.406 164.408 203.125 163.326 209.775C162.695 213.608 162.019 217.509 159.584 220.755C157.96 222.919 156.315 225.084 154.691 227.248C149.641 234.034 144.411 240.73 139.586 247.674C135.122 254.122 132.867 261.404 132.935 269.318C133.025 277.186 134.243 284.874 136.948 292.291C140.578 302.211 146.327 310.531 155.097 316.595C165.197 323.562 176.65 325.591 189.479 325.523ZM210.311 171.088C210.514 170.975 210.716 170.885 210.919 170.772C210.626 169.712 210.581 168.405 210.018 167.593C208.237 165.158 206.501 162.566 204.314 160.649C196.558 153.863 187.743 153.029 178.522 155.622C172.547 157.29 167.655 161.032 163.732 166.421C162.582 167.999 162.537 168.563 163.281 169.87C170.157 163.31 178.296 160.762 187.044 160.198C196.31 159.59 203.682 164.324 210.311 171.088ZM211.235 177.491C210.987 176.747 210.897 175.845 210.446 175.304C202.848 166.285 193.943 161.258 182.602 163.512C175.929 164.843 169.684 167.165 164.544 172.485C163.123 173.951 162.086 175.304 163.507 177.378C176.357 163.76 199.624 167.097 211.235 177.491ZM209.747 162.408C209.905 162.295 210.04 162.182 210.198 162.07C209.882 160.987 209.77 159.702 209.206 158.868C207.989 157.132 206.681 155.396 205.125 154.043C193.717 144.146 179.717 146.085 168.805 153.773C166.144 155.644 164.318 158.462 163.394 162.543C170.112 154.99 177.845 151.586 186.751 151.496C195.769 151.383 203.525 154.765 209.747 162.408Z" fill="url(#paint1_linear)" stroke="white" stroke-width="2.5" stroke-miterlimit="10"/>
<path d="M189.48 325.524C176.652 325.591 165.199 323.585 155.098 316.596C146.328 310.531 140.556 302.189 136.949 292.269C134.244 284.852 133.004 277.164 132.936 269.295C132.846 261.382 135.123 254.1 139.587 247.652C144.412 240.685 149.642 234.012 154.692 227.226C156.316 225.061 157.962 222.897 159.585 220.733C162.02 217.486 162.696 213.586 163.327 209.753C164.409 203.08 165.266 196.384 166.145 189.688C166.461 187.185 168.31 185.855 170.068 184.638C176.494 180.196 183.641 177.852 191.464 178.753C197.438 179.43 202.556 182.361 207.133 186.171C207.809 188.335 208.869 190.454 209.094 192.664C209.523 197.15 209.523 201.682 209.635 206.191C209.861 214.555 213.152 221.409 218.902 227.541C225.665 234.779 231.256 242.985 235.653 251.89C239.531 259.736 240.635 268.078 239.485 276.758C238.606 283.567 236.803 290.082 233.962 296.327C226.77 312.064 214.776 321.691 197.641 324.644C194.688 325.163 191.667 325.298 189.48 325.524Z" fill="url(#paint2_linear)" stroke="white" stroke-width="2.5" stroke-miterlimit="10"/>
<path d="M210.308 171.089C203.657 164.326 196.307 159.591 187.018 160.2C178.271 160.763 170.132 163.288 163.256 169.872C162.512 168.564 162.557 168 163.707 166.422C167.629 161.034 172.544 157.291 178.496 155.623C187.717 153.03 196.533 153.887 204.266 160.673C206.453 162.59 208.189 165.182 209.97 167.617C210.556 168.406 210.601 169.714 210.871 170.796C210.714 170.886 210.511 170.999 210.308 171.089Z" fill="url(#paint3_linear)" stroke="white" stroke-width="2.5" stroke-miterlimit="10"/>
<path d="M211.231 177.491C199.642 167.098 176.376 163.761 163.502 177.378C162.082 175.304 163.119 173.951 164.539 172.486C169.702 167.165 175.925 164.843 182.598 163.513C193.916 161.258 202.844 166.286 210.442 175.304C210.87 175.823 210.96 176.747 211.231 177.491Z" fill="url(#paint4_linear)" stroke="white" stroke-width="2.5" stroke-miterlimit="10"/>
<path d="M209.755 162.408C203.532 154.765 195.776 151.383 186.758 151.496C177.83 151.586 170.12 155.013 163.401 162.543C164.348 158.462 166.174 155.644 168.812 153.773C179.724 146.085 193.725 144.146 205.11 154.043C206.643 155.374 207.974 157.11 209.191 158.868C209.777 159.702 209.867 160.987 210.183 162.07C210.048 162.182 209.89 162.295 209.755 162.408Z" fill="url(#paint5_linear)" stroke="white" stroke-width="2.5" stroke-miterlimit="10"/>
<path d="M238.382 462.263C235.519 445.805 234.324 429.166 233.174 412.528C233.061 410.814 232.791 409.124 232.633 407.41C231.754 397.445 226.591 390.772 217.325 386.984C209.998 383.985 202.873 380.491 195.523 377.515C192.818 376.433 189.639 376.546 186.911 375.531C184.115 374.494 181.59 372.758 178.975 371.247C176.946 370.075 174.894 368.948 173.001 367.572C162.382 359.749 149.982 355.285 138.416 349.311C135.124 347.597 133.14 345.253 133.005 341.307C132.847 337.091 132.396 332.853 131.72 328.682C131.404 326.743 130.142 324.984 129.443 323.091C128.924 321.693 128.316 320.227 128.248 318.762C128.045 313.892 128.023 309.022 128 304.152C127.978 300.478 131.044 298.696 134.335 300.365C138.033 302.214 138.303 302.123 140.197 298.336C141.076 296.555 141.888 294.728 142.925 293.038C144.841 289.949 148.268 289.521 151.041 291.865C154.13 294.48 154.919 298.967 153.025 303.273C151.605 306.497 150.049 309.653 148.742 312.923C148.313 314.005 148.223 315.357 148.359 316.53C148.787 319.912 149.644 323.226 149.869 326.608C150.049 329.223 151.064 330.147 153.567 330.53C156.137 330.914 157.287 330.147 158.121 327.712C160.713 320.024 163.486 312.404 166.305 304.806C167.95 300.342 171.377 297.208 174.782 294.097C176.428 292.587 178.006 291.009 179.561 289.408C180.621 288.326 181.568 287.108 182.65 286.026C185.13 283.523 187.565 282.892 189.91 284.042C192.705 285.417 194.509 288.416 194.035 291.572C193.72 293.646 194.441 294.796 196.019 296.126C200.506 299.914 203.324 304.942 205.962 310.127C207.788 313.712 209.817 317.251 212.23 320.475C214.529 323.541 215.634 323.406 218.294 320.678C221.879 317.003 225.869 314.095 230.897 312.629C232.385 312.201 233.603 310.916 234.978 310.037C237.57 308.391 240.321 309.248 241.29 312.133C242.282 315.109 242.26 318.018 239.96 320.498C237.255 323.384 234.414 326.179 231.776 329.133C229.003 332.221 229.026 333.01 232.408 335.242C244.898 343.517 253.735 355.06 260.161 368.181C264.512 377.087 267.691 386.736 270.058 396.385C272.922 408.019 277.25 419.066 281.196 430.271C285.389 442.22 290.642 453.673 297 464.608L267.691 463.435L238.382 462.263ZM186.009 304.874C185.739 304.806 185.468 304.716 185.198 304.648C184.499 305.934 183.462 307.128 183.169 308.504C181.996 313.937 181.207 319.483 179.945 324.894C178.908 329.336 181.162 332.514 183.439 335.761C183.845 336.325 184.792 336.708 185.536 336.798C189.256 337.249 192.886 336.956 196.335 335.242C197.936 334.453 198.793 333.168 198.251 331.545C197.462 329.088 196.47 326.675 195.275 324.398C193.72 321.4 191.668 318.627 190.225 315.583C188.602 312.111 187.407 308.436 186.009 304.874Z" fill="url(#paint6_linear)" stroke="white" stroke-width="2.5" stroke-miterlimit="10"/>
<path d="M241.324 458.941L290.903 460.358L295.153 473.107H245.574L241.324 458.941Z" fill="url(#paint7_linear)"/>
<defs>
<filter id="filter0_d" x="0" y="0" width="454" height="479" filterUnits="userSpaceOnUse" color-interpolation-filters="sRGB">
<feFlood flood-opacity="0" result="BackgroundImageFix"/>
<feColorMatrix in="SourceAlpha" type="matrix" values="0 0 0 0 0 0 0 0 0 0 0 0 0 0 0 0 0 0 127 0"/>
<feOffset dy="4"/>
<feGaussianBlur stdDeviation="2"/>
<feColorMatrix type="matrix" values="0 0 0 0 0 0 0 0 0 0 0 0 0 0 0 0 0 0 0.25 0"/>
<feBlend mode="normal" in2="BackgroundImageFix" result="effect1_dropShadow"/>
<feBlend mode="normal" in="SourceGraphic" in2="effect1_dropShadow" result="shape"/>
</filter>
<linearGradient id="paint0_linear" x1="9" y1="64.1698" x2="513.409" y2="188.528" gradientUnits="userSpaceOnUse">
<stop stop-color="#FF00B8"/>
<stop offset="0.505208" stop-color="#FF655B"/>
<stop offset="1" stop-color="#FFC700"/>
</linearGradient>
<linearGradient id="paint1_linear" x1="132.934" y1="170.174" x2="261.072" y2="190.223" gradientUnits="userSpaceOnUse">
<stop stop-color="#FF00B8"/>
<stop offset="0.505208" stop-color="#FF655B"/>
<stop offset="1" stop-color="#FFC700"/>
</linearGradient>
<linearGradient id="paint2_linear" x1="132.934" y1="197.425" x2="259.662" y2="221.474" gradientUnits="userSpaceOnUse">
<stop stop-color="#FF00B8"/>
<stop offset="0.505208" stop-color="#FF655B"/>
<stop offset="1" stop-color="#FFC700"/>
</linearGradient>
<linearGradient id="paint3_linear" x1="162.759" y1="156.43" x2="200.701" y2="184.727" gradientUnits="userSpaceOnUse">
<stop stop-color="#FF00B8"/>
<stop offset="0.505208" stop-color="#FF655B"/>
<stop offset="1" stop-color="#FFC700"/>
</linearGradient>
<linearGradient id="paint4_linear" x1="162.824" y1="164.839" x2="196.658" y2="194.254" gradientUnits="userSpaceOnUse">
<stop stop-color="#FF00B8"/>
<stop offset="0.505208" stop-color="#FF655B"/>
<stop offset="1" stop-color="#FFC700"/>
</linearGradient>
<linearGradient id="paint5_linear" x1="163.401" y1="149.255" x2="198.409" y2="177.261" gradientUnits="userSpaceOnUse">
<stop stop-color="#FF00B8"/>
<stop offset="0.505208" stop-color="#FF655B"/>
<stop offset="1" stop-color="#FFC700"/>
</linearGradient>
<linearGradient id="paint6_linear" x1="128" y1="306.735" x2="323.815" y2="354.364" gradientUnits="userSpaceOnUse">
<stop stop-color="#FF00B8"/>
<stop offset="0.505208" stop-color="#FF655B"/>
<stop offset="1" stop-color="#FFC700"/>
</linearGradient>
<linearGradient id="paint7_linear" x1="241.324" y1="460.76" x2="274.667" y2="493.788" gradientUnits="userSpaceOnUse">
<stop stop-color="#FF00B8"/>
<stop offset="0.505208" stop-color="#FF655B"/>
<stop offset="1" stop-color="#FFC700"/>
</linearGradient>
</defs>
</svg>
