<svg width="301" height="74" viewBox="0 0 301 74" fill="none" xmlns="http://www.w3.org/2000/svg">
<path d="M81.2098 53.9507C82.1063 54.8342 83.0843 55.2758 84.1438 55.2758C84.3475 55.2758 84.7754 55.2357 85.4274 55.1554C85.7127 55.7175 85.8553 56.2396 85.8553 56.7214C85.8553 57.9663 84.5309 58.5886 81.8821 58.5886C80.7004 58.5886 79.5594 58.167 78.4591 57.3238C77.3588 56.4403 76.2994 55.1956 75.2806 53.5893C74.2618 51.943 73.4671 50.5777 72.8967 49.4935C72.3669 48.3692 71.7149 46.9437 70.9406 45.217C70.1664 45.0564 69.7793 44.6549 69.7793 44.0124C69.7793 43.6108 69.9219 43.0085 70.2071 42.2054C71.1037 42.4061 71.8779 42.5065 72.5299 42.5065C74.4045 42.5065 75.9326 41.9444 77.1143 40.82C78.2961 39.6556 78.887 38.0895 78.887 36.1219C78.887 33.7929 78.2349 32.1666 76.931 31.2431C75.627 30.3195 73.6302 29.8577 70.9406 29.8577C70.6961 29.8577 69.4736 29.9179 67.2731 30.0384C67.4361 31.8856 67.5176 35.0377 67.5176 39.4949V48.7707C67.5176 52.9468 67.8232 56.0187 68.4345 57.9863C67.7418 58.1871 66.8452 58.2875 65.745 58.2875C64.6447 58.2875 63.8908 58.0867 63.4833 57.6852C63.1166 57.2836 62.9332 56.601 62.9332 55.6372C62.9332 55.1554 62.9535 53.9307 62.9943 51.9631C63.0351 49.9954 63.0554 48.4495 63.0554 47.3251V37.9289C63.0554 33.5118 62.8313 29.9179 62.3831 27.1472C64.5836 26.7858 67.1509 26.6051 70.0849 26.6051C79.2129 26.6051 83.777 29.7573 83.777 36.0617C83.777 38.5512 83.0435 40.5791 81.5765 42.1451C80.1503 43.7112 78.2349 44.7552 75.8307 45.2772C78.3165 49.9754 80.1095 52.8665 81.2098 53.9507ZM104.321 58.5886C99.5937 58.5886 95.8249 57.1431 93.0131 54.2519C90.2013 51.3607 88.7954 47.4858 88.7954 42.627C88.7954 37.7281 90.2013 33.8331 93.0131 30.9419C95.8249 28.0507 99.5937 26.6051 104.321 26.6051C109.089 26.6051 112.879 28.0507 115.691 30.9419C118.543 33.8331 119.97 37.7281 119.97 42.627C119.97 47.4858 118.543 51.3607 115.691 54.2519C112.879 57.1431 109.089 58.5886 104.321 58.5886ZM115.079 43.4703C115.079 41.1814 114.753 39.0532 114.101 37.0856C113.449 35.118 112.268 33.4315 110.556 32.0261C108.885 30.6207 106.828 29.9179 104.382 29.9179C101.082 29.9179 98.4533 30.9821 96.4973 33.1103C94.5814 35.2384 93.6244 37.9489 93.6244 41.2417C93.6244 43.651 93.9501 45.8796 94.6024 47.9275C95.2538 49.9754 96.4152 51.7221 98.0865 53.1677C99.757 54.6133 101.835 55.3361 104.321 55.3361C107.744 55.3361 110.393 54.2519 112.268 52.0835C114.142 49.875 115.079 47.0039 115.079 43.4703ZM161.652 17.9919C162.792 17.751 163.648 17.6305 164.219 17.6305C165.156 17.6305 165.829 17.8514 166.236 18.2931C166.643 18.7347 166.848 19.4977 166.848 20.5819C166.848 24.9989 165.421 30.9218 162.569 38.3505C159.716 45.7391 156.802 51.3005 153.828 55.0349C152.809 56.36 151.953 57.2435 151.261 57.6852C150.567 58.1268 149.753 58.3477 148.816 58.3477C148.367 58.3477 147.694 58.3075 146.798 58.2272C145.494 51.7623 143.273 44.3537 140.136 36.0014C136.997 27.6491 134.329 22.4089 132.128 20.2807C133.84 18.795 135.307 18.0521 136.529 18.0521C137.792 18.0521 138.791 18.9154 139.524 20.6421C141.114 24.2159 142.988 29.2956 145.148 35.881C147.308 42.4664 148.999 48.1885 150.221 53.0472C152.625 50.397 155.173 45.5584 157.862 38.5312C160.552 31.4639 161.896 25.6214 161.896 21.0035C161.896 19.5579 161.814 18.554 161.652 17.9919ZM183.059 45.4579C182.285 43.651 180.635 39.3744 178.108 32.6284C176.071 38.4107 174.461 42.6672 173.279 45.3977C175.724 45.478 177.599 45.5182 178.903 45.5182C180.818 45.5182 182.203 45.4981 183.059 45.4579ZM177.924 48.7105C177.069 48.7105 175.093 48.6703 171.995 48.59C171.792 49.0719 171.344 50.136 170.651 51.7824C169.999 53.4287 169.469 54.814 169.061 55.9384C168.654 57.0226 168.308 58.0867 168.022 59.1307C165.618 58.8095 164.416 58.1871 164.416 57.2635C164.416 56.8619 164.599 56.1994 164.966 55.2758C165.374 54.3523 166.046 52.8264 166.983 50.6982C167.961 48.5298 168.878 46.3614 169.734 44.1931C172.912 36.1219 174.99 30.46 175.968 27.2075C176.621 27.087 177.374 27.0268 178.23 27.0268C179.127 27.0268 179.758 27.1673 180.125 27.4484C180.492 27.6893 180.9 28.3921 181.348 29.5565C181.674 30.3998 182.55 32.7489 183.976 36.6038C185.443 40.4185 186.584 43.3498 187.399 45.3977C189.355 50.136 191.271 54.2519 193.145 57.7454C192.004 58.3075 191.087 58.5886 190.394 58.5886C189.172 58.5886 188.337 58.1871 187.888 57.384C187.643 56.8218 186.442 53.8905 184.282 48.59C180.777 48.6703 178.658 48.7105 177.924 48.7105ZM196.005 27.2677C196.739 27.0268 197.595 26.9063 198.573 26.9063C199.673 26.9063 200.468 27.087 200.957 27.4484C201.487 27.8098 201.751 28.4322 201.751 29.3156C201.751 30.6407 201.609 33.5519 201.323 38.0493C201.079 42.5467 200.957 46.0603 200.957 48.59C200.957 50.7182 201.589 52.3245 202.852 53.4086C204.115 54.4928 205.602 55.0349 207.314 55.0349C208.863 55.0349 210.492 54.6735 212.204 53.9507C213.915 53.2279 215.301 52.3847 216.36 51.421C216.36 51.2202 216.36 50.7182 216.36 49.9151C216.401 49.0719 216.421 47.6464 216.421 45.6386C216.421 43.6309 216.421 41.061 216.421 37.9289C216.421 33.7528 216.299 30.1388 216.055 27.087C216.707 26.9665 217.502 26.9063 218.439 26.9063C220.313 26.9063 221.25 27.5086 221.25 28.7133C221.25 28.7535 221.21 29.3357 221.128 30.46C221.088 31.5442 221.027 33.2508 220.945 35.5798C220.864 37.9088 220.822 40.5991 220.822 43.651C220.822 48.5097 220.864 51.7623 220.945 53.4086C221.067 55.055 221.353 56.5809 221.8 57.9863C221.108 58.1871 220.211 58.2875 219.111 58.2875C218.052 58.2875 217.318 58.1068 216.91 57.7454C216.504 57.3438 216.299 56.621 216.299 55.577V54.8542C214.954 55.9384 213.365 56.8419 211.531 57.5647C209.698 58.2473 208.007 58.5886 206.458 58.5886C203.361 58.5886 200.896 57.906 199.062 56.5407C197.269 55.1754 196.372 52.726 196.372 49.1924C196.372 47.3452 196.433 44.8556 196.556 41.7235C196.719 38.5512 196.8 36.2022 196.8 34.6763C196.8 31.6245 196.536 29.155 196.005 27.2677Z" fill="black"/>
<path d="M286.05 47.842V38.4457C286.05 36.5986 286.009 34.109 285.928 30.9769C281.16 30.9769 278.002 31.0371 276.454 31.1576C276.372 30.9568 276.331 30.4548 276.331 29.6518C276.331 28.929 276.495 28.4271 276.82 28.146C277.187 27.8648 277.757 27.7243 278.532 27.7243C278.858 27.7243 279.652 27.7243 280.916 27.7243C282.219 27.6841 283.28 27.6641 284.094 27.6641H290.023C295.444 27.6641 298.744 27.6239 299.926 27.5436C300.007 27.9452 300.048 28.4271 300.048 28.9892C300.048 30.3143 299.315 30.9769 297.848 30.9769H290.757C290.757 31.4186 290.716 32.1815 290.635 33.2657C290.594 34.3097 290.553 35.3939 290.512 36.5183C290.471 37.6426 290.451 38.7067 290.451 39.7106V49.1671C290.451 53.3834 290.777 56.4753 291.429 58.4429C290.818 58.6838 289.921 58.8043 288.74 58.8043C287.64 58.8043 286.886 58.6036 286.478 58.202C286.111 57.8004 285.928 57.1178 285.928 56.1541C285.928 55.6722 285.948 54.4475 285.989 52.4799C286.03 50.5123 286.05 48.9664 286.05 47.842Z" fill="black"/>
<path d="M249.41 65.4814C263.791 65.4814 275.449 64.7792 275.449 63.913C275.449 63.0469 263.791 62.3447 249.41 62.3447C235.029 62.3447 223.371 63.0469 223.371 63.913C223.371 64.7792 235.029 65.4814 249.41 65.4814Z" fill="#F3EEE8"/>
<path d="M245.587 55.3223V64.0293L229.921 63.3528L232.822 55.3223H245.587Z" fill="#FFCD2F" stroke="#FF9300" stroke-width="3"/>
<path d="M245.827 55.3652V63.9869L269.431 63.3101L265.106 55.3652H245.827Z" fill="#FFB200" stroke="#FF9300" stroke-width="4"/>
<path d="M232.826 49.1619L245.586 47.2513V57.1978H229.922L232.826 49.1619Z" fill="#FFCD2F" stroke="#FF9300" stroke-width="3"/>
<path d="M265.102 49.2074L245.89 47.2909L245.829 57.1543H269.426L265.102 49.2074Z" fill="#FFB200" stroke="#FF9300" stroke-width="4"/>
<path d="M245.337 56.9495H230.309L245.337 49.6095V56.9495Z" fill="#FFE07D"/>
<path d="M245.274 63.7255L230.245 63.0983L245.274 57.3267V63.7255Z" fill="#FFE07D"/>
<path d="M232.826 41.445L245.586 39.5344V49.4808H229.922L232.826 41.445Z" fill="#FFCD2F" stroke="#FF9300" stroke-width="3"/>
<path d="M265.102 41.4906L245.89 39.5741L245.829 49.4374H269.426L265.102 41.4906Z" fill="#FFB200" stroke="#FF9300" stroke-width="4"/>
<path d="M245.337 49.2332H230.309L245.337 41.8933V49.2332Z" fill="#FFE07D"/>
<path d="M232.826 33.7281L245.586 31.8175V41.764H229.922L232.826 33.7281Z" fill="#FFCD2F" stroke="#FF9300" stroke-width="3"/>
<path d="M265.102 33.7743L245.89 31.8579L245.829 41.7213H269.426L265.102 33.7743Z" fill="#FFB200" stroke="#FF9300" stroke-width="4"/>
<path d="M245.337 41.5167H230.309L245.337 34.1768V41.5167Z" fill="#FFE07D"/>
<path d="M232.826 26.0124L245.586 24.1018V34.0482H229.922L232.826 26.0124Z" fill="#FFCD2F" stroke="#FF9300" stroke-width="3"/>
<path d="M265.102 26.0575L245.89 24.1409L245.829 34.0043H269.426L265.102 26.0575Z" fill="#FFB200" stroke="#FF9300" stroke-width="4"/>
<path d="M245.337 33.8007H230.309L245.337 26.4609V33.8007Z" fill="#FFE07D"/>
<path d="M232.826 18.2959L245.586 16.3853V26.3318H229.922L232.826 18.2959Z" fill="#FFCD2F" stroke="#FF9300" stroke-width="3"/>
<path d="M265.102 18.3417L245.89 16.4252L245.829 26.2885H269.426L265.102 18.3417Z" fill="#FFB200" stroke="#FF9300" stroke-width="4"/>
<path d="M245.337 26.0832H230.309L245.337 18.7433V26.0832Z" fill="#FFE07D"/>
<path d="M232.826 10.58L245.586 8.66934V18.6158H229.922L232.826 10.58Z" fill="#FFCD2F" stroke="#FF9300" stroke-width="3"/>
<path d="M265.102 10.6253L245.89 8.70877L245.829 18.5721H269.426L265.102 10.6253Z" fill="#FFB200" stroke="#FF9300" stroke-width="4"/>
<path d="M245.337 18.3678H230.309L245.337 8.95772V18.3678Z" fill="#FFE07D"/>
<path fill-rule="evenodd" clip-rule="evenodd" d="M24.2265 12.1655V15.382L23.5948 15.5431C20.9194 16.2253 18.9004 17.0204 17.0859 18.1066C16.6008 18.397 16.1356 18.5931 16.0521 18.5422C15.9687 18.4914 14.9479 17.4987 13.7838 16.3361C12.6198 15.1737 11.6151 14.2223 11.5512 14.2221C11.4053 14.2215 5.35064 20.1656 5.35064 20.3094C5.35064 20.3674 6.34853 21.4009 7.56819 22.6062L9.78586 24.7973L9.25494 25.6151C8.11291 27.3744 6.69172 30.7348 6.4438 32.2621L6.35299 32.8217H3.1765H0V37.2125V41.6031L3.07067 41.6429L6.14135 41.6824L6.47843 43.0005C7.06745 45.3038 7.86976 47.2321 9.02878 49.13L9.55227 49.9871L7.45136 52.0341C6.29592 53.1601 5.35064 54.127 5.35064 54.1828C5.35064 54.3337 11.3762 60.2092 11.5309 60.2092C11.6039 60.2092 12.579 59.309 13.6976 58.2086L15.7318 56.2082L16.7465 56.7991C18.9027 58.055 21.0559 58.9435 23.0747 59.4104L24.2265 59.677V62.5794V65.4817H28.6854H33.1442V62.5858V59.6901L33.9989 59.4991C36.1004 59.0297 38.318 58.1308 40.6016 56.823C41.1471 56.5106 41.625 56.2548 41.6634 56.2548C41.7017 56.2548 42.6345 57.1446 43.7362 58.232C44.8377 59.3195 45.7985 60.2092 45.8712 60.2092C46.0416 60.2092 52.0201 54.3162 52.0201 54.1484C52.0201 54.0788 51.0848 53.0955 49.9416 51.9634L47.8628 49.905L48.1693 49.4552C48.6286 48.781 50.0169 45.9056 50.3665 44.9045C50.5353 44.4211 50.7993 43.4985 50.953 42.854L51.2325 41.6824L54.3016 41.6429L57.3708 41.6031V37.2125V32.8217H54.2495C52.5329 32.8217 51.1283 32.7974 51.1283 32.7675C51.1283 32.7378 50.9314 32.0601 50.6906 31.2616C50.1211 29.3724 49.3543 27.6211 48.4431 26.1284C48.0398 25.4677 47.7099 24.8738 47.7099 24.8085C47.7099 24.743 48.6797 23.7356 49.865 22.5697C51.0503 21.4038 52.0201 20.3825 52.0201 20.3001C52.0201 20.1439 46.0653 14.2216 45.9082 14.2216C45.8589 14.2216 44.8087 15.2245 43.5743 16.4504L41.3301 18.6792L40.7671 18.3465C38.8021 17.1854 35.6215 15.9195 33.553 15.4754L33.1442 15.3877V12.1684V8.94914H28.6854H24.2265V12.1655ZM32.2525 21.386C38.999 22.8701 44.1563 28.2251 45.2523 34.8844C46.7301 43.8634 40.5981 52.2863 31.4374 53.8609C29.67 54.1646 26.4189 54.0552 24.8049 53.6378C21.8343 52.8695 19.4146 51.5829 17.3626 49.6803C15.1454 47.6247 13.7682 45.5783 12.8538 42.9809C11.3992 38.8488 11.6354 34.4903 13.5297 30.507C15.5075 26.3482 19.3047 23.0889 23.7255 21.7555C26.4761 20.9259 29.554 20.7926 32.2525 21.386Z" fill="black"/>
<path fill-rule="evenodd" clip-rule="evenodd" d="M27.0537 24.3135C21.7284 24.9674 17.2431 28.8133 15.8096 33.9542C15.3759 35.5091 15.3318 38.8781 15.7265 40.3073C17.1361 45.4129 20.9414 49.0329 25.9698 50.052C28.1623 50.4964 30.9352 50.3113 33.0803 49.5772C36.3526 48.4576 39.2415 45.8418 40.6694 42.706C41.3773 41.1513 41.7014 39.8068 41.7973 38.0263C42.0177 33.9343 40.6285 30.5492 37.5669 27.7182C34.7889 25.1497 30.7902 23.8545 27.0537 24.3135ZM30.6884 29.4103C33.7645 30.217 36.082 32.6606 36.7209 35.7711C37.8982 41.5026 32.4471 46.6122 26.6865 45.1768C22.9674 44.25 20.3925 41.0345 20.3976 37.3227C20.4027 33.5497 22.8148 30.4376 26.5335 29.4061C27.4535 29.1508 29.7076 29.1532 30.6884 29.4103Z" fill="black"/>
<path fill-rule="evenodd" clip-rule="evenodd" d="M27.7564 32.7494C25.7133 33.1529 24.2267 34.9361 24.2193 36.9921C24.2133 38.6597 25.0532 40.0679 26.5365 40.8775C27.2464 41.2649 27.4723 41.3126 28.5971 41.3109C29.9843 41.309 30.6268 41.0746 31.6339 40.2032C32.9655 39.0512 33.4056 36.707 32.5819 35.1545C31.6278 33.3562 29.6573 32.374 27.7564 32.7494Z" fill="black"/>
</svg>
