<svg width="454" height="479" viewBox="0 0 454 479" fill="none" xmlns="http://www.w3.org/2000/svg">
<g filter="url(#filter0_d)">
<path d="M348 2.5H106C51.0477 2.5 6.5 47.0477 6.5 102V369C6.5 423.952 51.0477 468.5 106 468.5H348C402.952 468.5 447.5 423.952 447.5 369V102C447.5 47.0477 402.952 2.5 348 2.5Z" fill="white" stroke="url(#paint0_linear)" stroke-width="5"/>
</g>
<path d="M50.9169 118V76H69.1569C73.2369 76 76.5169 77.12 78.9969 79.36C81.4769 81.56 82.7169 84.48 82.7169 88.12C82.7169 91.76 81.4569 94.7 78.9369 96.94C76.4569 99.18 73.1969 100.3 69.1569 100.3H55.5369V118H50.9169ZM68.7969 80.14H55.5369V96.28H68.7969C71.6369 96.28 73.8969 95.56 75.5769 94.12C77.2569 92.64 78.0969 90.66 78.0969 88.18C78.0969 85.7 77.2569 83.74 75.5769 82.3C73.8969 80.86 71.6369 80.14 68.7969 80.14ZM88.9245 118V87.94H93.3645V92.2C94.2445 90.64 95.4045 89.44 96.8445 88.6C98.2845 87.72 99.9245 87.28 101.765 87.28C102.325 87.28 102.825 87.32 103.265 87.4C103.705 87.44 104.145 87.54 104.585 87.7V91.78C104.065 91.62 103.545 91.5 103.025 91.42C102.505 91.3 101.985 91.24 101.465 91.24C99.6245 91.24 98.0045 91.78 96.6045 92.86C95.2045 93.9 94.1245 95.42 93.3645 97.42V118H88.9245ZM106.119 102.94C106.119 100.78 106.519 98.74 107.319 96.82C108.119 94.9 109.199 93.24 110.559 91.84C111.959 90.44 113.599 89.34 115.479 88.54C117.359 87.74 119.359 87.34 121.479 87.34C123.599 87.34 125.579 87.74 127.419 88.54C129.299 89.34 130.919 90.44 132.279 91.84C133.679 93.24 134.779 94.9 135.579 96.82C136.379 98.74 136.779 100.78 136.779 102.94C136.779 105.14 136.379 107.2 135.579 109.12C134.779 111.04 133.679 112.7 132.279 114.1C130.919 115.5 129.299 116.6 127.419 117.4C125.579 118.2 123.599 118.6 121.479 118.6C119.359 118.6 117.359 118.2 115.479 117.4C113.599 116.6 111.959 115.5 110.559 114.1C109.199 112.7 108.119 111.04 107.319 109.12C106.519 107.2 106.119 105.14 106.119 102.94ZM121.479 114.64C122.999 114.64 124.419 114.34 125.739 113.74C127.099 113.14 128.259 112.32 129.219 111.28C130.219 110.2 130.999 108.96 131.559 107.56C132.119 106.12 132.399 104.58 132.399 102.94C132.399 101.3 132.119 99.78 131.559 98.38C130.999 96.94 130.219 95.7 129.219 94.66C128.259 93.62 127.099 92.8 125.739 92.2C124.419 91.6 122.999 91.3 121.479 91.3C119.959 91.3 118.519 91.6 117.159 92.2C115.839 92.8 114.679 93.62 113.679 94.66C112.719 95.7 111.939 96.94 111.339 98.38C110.779 99.78 110.499 101.3 110.499 102.94C110.499 104.58 110.779 106.12 111.339 107.56C111.899 108.96 112.659 110.2 113.619 111.28C114.619 112.32 115.799 113.14 117.159 113.74C118.519 114.34 119.959 114.64 121.479 114.64ZM156.627 118.24C154.547 118.24 152.587 117.84 150.747 117.04C148.947 116.24 147.367 115.16 146.007 113.8C144.647 112.4 143.567 110.76 142.767 108.88C142.007 107 141.627 104.98 141.627 102.82C141.627 100.66 142.007 98.64 142.767 96.76C143.567 94.88 144.647 93.26 146.007 91.9C147.367 90.5 148.967 89.4 150.807 88.6C152.647 87.8 154.627 87.4 156.747 87.4C158.467 87.4 160.127 87.72 161.727 88.36C163.367 88.96 164.867 89.82 166.227 90.94V87.94H170.607V118.72C170.607 122.56 169.487 125.5 167.247 127.54C165.007 129.62 161.807 130.66 157.647 130.66C155.567 130.66 153.507 130.38 151.467 129.82C149.427 129.3 147.567 128.54 145.887 127.54L147.807 124.06C149.607 125.02 151.267 125.72 152.787 126.16C154.347 126.6 155.907 126.82 157.467 126.82C160.307 126.82 162.467 126.14 163.947 124.78C165.427 123.42 166.167 121.42 166.167 118.78V114.76C164.807 115.88 163.307 116.74 161.667 117.34C160.067 117.94 158.387 118.24 156.627 118.24ZM146.007 102.82C146.007 104.42 146.287 105.94 146.847 107.38C147.407 108.78 148.167 110 149.127 111.04C150.127 112.04 151.307 112.84 152.667 113.44C154.027 114.04 155.467 114.34 156.987 114.34C158.907 114.34 160.667 113.98 162.267 113.26C163.867 112.54 165.167 111.52 166.167 110.2V95.44C165.167 94.16 163.847 93.16 162.207 92.44C160.607 91.72 158.867 91.36 156.987 91.36C155.427 91.36 153.967 91.66 152.607 92.26C151.287 92.82 150.127 93.62 149.127 94.66C148.167 95.7 147.407 96.92 146.847 98.32C146.287 99.72 146.007 101.22 146.007 102.82ZM178.163 118V87.94H182.603V92.2C183.483 90.64 184.643 89.44 186.083 88.6C187.523 87.72 189.163 87.28 191.003 87.28C191.563 87.28 192.063 87.32 192.503 87.4C192.943 87.44 193.383 87.54 193.823 87.7V91.78C193.303 91.62 192.783 91.5 192.263 91.42C191.743 91.3 191.223 91.24 190.703 91.24C188.863 91.24 187.243 91.78 185.843 92.86C184.443 93.9 183.363 95.42 182.603 97.42V118H178.163ZM206.803 118.54C203.523 118.54 200.843 117.7 198.763 116.02C196.723 114.34 195.703 112.16 195.703 109.48C195.703 106.68 196.783 104.46 198.943 102.82C201.103 101.14 204.023 100.3 207.703 100.3C209.303 100.3 210.843 100.48 212.323 100.84C213.843 101.2 215.243 101.7 216.523 102.34V98.38C216.523 95.98 215.843 94.18 214.483 92.98C213.123 91.74 211.143 91.12 208.543 91.12C207.063 91.12 205.563 91.34 204.043 91.78C202.563 92.18 200.923 92.84 199.123 93.76L197.443 90.34C199.603 89.3 201.603 88.54 203.443 88.06C205.283 87.58 207.123 87.34 208.963 87.34C212.763 87.34 215.683 88.24 217.723 90.04C219.803 91.84 220.843 94.42 220.843 97.78V118H216.523V115.06C215.163 116.22 213.663 117.1 212.023 117.7C210.423 118.26 208.683 118.54 206.803 118.54ZM199.963 109.36C199.963 111.04 200.663 112.42 202.063 113.5C203.503 114.54 205.343 115.06 207.583 115.06C209.383 115.06 211.023 114.78 212.503 114.22C213.983 113.66 215.323 112.78 216.523 111.58V105.94C215.283 105.1 213.943 104.5 212.503 104.14C211.103 103.74 209.543 103.54 207.823 103.54C205.423 103.54 203.503 104.08 202.063 105.16C200.663 106.2 199.963 107.6 199.963 109.36ZM228.26 118V87.94H232.7V91.24C233.82 89.96 235.12 89 236.6 88.36C238.08 87.68 239.72 87.34 241.52 87.34C243.6 87.34 245.46 87.84 247.1 88.84C248.78 89.8 250.08 91.12 251 92.8C252.24 90.96 253.72 89.6 255.44 88.72C257.2 87.8 259.16 87.34 261.32 87.34C264.56 87.34 267.2 88.42 269.24 90.58C271.32 92.74 272.36 95.54 272.36 98.98V118H267.98V99.88C267.98 97.24 267.28 95.14 265.88 93.58C264.48 92.02 262.58 91.24 260.18 91.24C258.54 91.24 257.04 91.66 255.68 92.5C254.32 93.34 253.16 94.56 252.2 96.16C252.28 96.6 252.34 97.06 252.38 97.54C252.46 97.98 252.5 98.46 252.5 98.98V118H248.12V99.88C248.12 97.24 247.42 95.14 246.02 93.58C244.62 92.02 242.74 91.24 240.38 91.24C238.78 91.24 237.32 91.62 236 92.38C234.72 93.1 233.62 94.18 232.7 95.62V118H228.26ZM279.823 118V87.94H284.263V91.24C285.383 89.96 286.683 89 288.163 88.36C289.643 87.68 291.283 87.34 293.083 87.34C295.163 87.34 297.023 87.84 298.663 88.84C300.343 89.8 301.643 91.12 302.563 92.8C303.803 90.96 305.283 89.6 307.003 88.72C308.763 87.8 310.723 87.34 312.883 87.34C316.123 87.34 318.763 88.42 320.803 90.58C322.883 92.74 323.923 95.54 323.923 98.98V118H319.543V99.88C319.543 97.24 318.843 95.14 317.443 93.58C316.043 92.02 314.143 91.24 311.743 91.24C310.103 91.24 308.603 91.66 307.243 92.5C305.883 93.34 304.723 94.56 303.763 96.16C303.843 96.6 303.903 97.06 303.943 97.54C304.023 97.98 304.063 98.46 304.063 98.98V118H299.683V99.88C299.683 97.24 298.983 95.14 297.583 93.58C296.183 92.02 294.303 91.24 291.943 91.24C290.343 91.24 288.883 91.62 287.563 92.38C286.283 93.1 285.183 94.18 284.263 95.62V118H279.823ZM333.605 82.18C332.805 82.18 332.105 81.88 331.505 81.28C330.905 80.68 330.605 79.98 330.605 79.18C330.605 78.34 330.905 77.64 331.505 77.08C332.105 76.48 332.805 76.18 333.605 76.18C334.445 76.18 335.145 76.48 335.705 77.08C336.305 77.64 336.605 78.34 336.605 79.18C336.605 79.98 336.305 80.68 335.705 81.28C335.145 81.88 334.445 82.18 333.605 82.18ZM335.825 87.94V118H331.385V87.94H335.825ZM343.397 118V87.94H347.837V91.48C348.997 90.12 350.377 89.1 351.977 88.42C353.577 87.7 355.357 87.34 357.317 87.34C360.717 87.34 363.497 88.42 365.657 90.58C367.817 92.74 368.897 95.54 368.897 98.98V118H364.517V99.88C364.517 97.24 363.757 95.14 362.237 93.58C360.717 92.02 358.677 91.24 356.117 91.24C354.317 91.24 352.697 91.64 351.257 92.44C349.857 93.24 348.717 94.38 347.837 95.86V118H343.397ZM389.947 118.24C387.867 118.24 385.907 117.84 384.067 117.04C382.267 116.24 380.687 115.16 379.327 113.8C377.967 112.4 376.887 110.76 376.087 108.88C375.327 107 374.947 104.98 374.947 102.82C374.947 100.66 375.327 98.64 376.087 96.76C376.887 94.88 377.967 93.26 379.327 91.9C380.687 90.5 382.287 89.4 384.127 88.6C385.967 87.8 387.947 87.4 390.067 87.4C391.787 87.4 393.447 87.72 395.047 88.36C396.687 88.96 398.187 89.82 399.547 90.94V87.94H403.927V118.72C403.927 122.56 402.807 125.5 400.567 127.54C398.327 129.62 395.127 130.66 390.967 130.66C388.887 130.66 386.827 130.38 384.787 129.82C382.747 129.3 380.887 128.54 379.207 127.54L381.127 124.06C382.927 125.02 384.587 125.72 386.107 126.16C387.667 126.6 389.227 126.82 390.787 126.82C393.627 126.82 395.787 126.14 397.267 124.78C398.747 123.42 399.487 121.42 399.487 118.78V114.76C398.127 115.88 396.627 116.74 394.987 117.34C393.387 117.94 391.707 118.24 389.947 118.24ZM379.327 102.82C379.327 104.42 379.607 105.94 380.167 107.38C380.727 108.78 381.487 110 382.447 111.04C383.447 112.04 384.627 112.84 385.987 113.44C387.347 114.04 388.787 114.34 390.307 114.34C392.227 114.34 393.987 113.98 395.587 113.26C397.187 112.54 398.487 111.52 399.487 110.2V95.44C398.487 94.16 397.167 93.16 395.527 92.44C393.927 91.72 392.187 91.36 390.307 91.36C388.747 91.36 387.287 91.66 385.927 92.26C384.607 92.82 383.447 93.62 382.447 94.66C381.487 95.7 380.727 96.92 380.167 98.32C379.607 99.72 379.327 101.22 379.327 102.82Z" fill="#151371"/>
<path d="M241.324 458.941L290.903 460.358L295.153 473.107H245.574L241.324 458.941Z" fill="url(#paint1_linear)"/>
<path d="M265.186 182C269.042 182 272.899 182 276.77 182C277.048 182.097 277.313 182.251 277.605 182.278C279.374 182.459 281.142 182.612 282.91 182.779C283.773 182.863 283.927 183.03 284.066 183.907C284.33 185.563 284.581 187.219 284.846 188.876C285.751 194.638 286.67 200.414 287.575 206.176C287.672 206.844 287.964 207.192 288.633 207.359C294.077 208.751 299.228 210.852 304.13 213.594C304.826 213.984 305.355 213.97 306.009 213.511C308.752 211.59 311.523 209.697 314.28 207.804C317.858 205.341 321.436 202.877 325.015 200.428C325.794 199.885 325.948 199.899 326.63 200.428C329.763 202.78 332.7 205.355 335.499 208.097C338.033 210.588 340.386 213.246 342.642 216.002C343.408 216.935 343.408 216.935 342.684 217.937C338.298 223.949 333.926 229.962 329.54 235.975C329.025 236.671 329.025 236.698 329.498 237.45C331.197 240.192 332.728 243.031 334.051 245.982C335.137 248.418 336.112 250.895 336.864 253.47C337.045 254.11 337.393 254.458 338.061 254.542C338.91 254.667 339.76 254.848 340.609 255.001C347.25 256.212 353.892 257.423 360.533 258.634C361.578 258.828 361.647 258.898 361.787 259.928C362.093 262.392 362.385 264.869 362.706 267.332C362.733 267.597 362.9 267.833 362.998 268.084C362.998 272.357 362.998 276.616 362.998 280.889C362.678 281.153 362.719 281.515 362.692 281.877C362.622 282.712 362.552 282.796 361.703 282.949C361.355 283.018 361.007 283.06 360.645 283.116C355.632 283.909 350.62 284.702 345.594 285.496C343.533 285.816 341.486 286.178 339.425 286.484C338.813 286.567 338.437 286.818 338.367 287.444C338.353 287.597 338.312 287.75 338.27 287.89C337.657 290.172 337.128 292.469 336.432 294.723C335.262 298.495 333.717 302.114 331.823 305.58C331.461 306.248 331.461 306.777 331.921 307.389C332.506 308.155 333.021 308.976 333.578 309.769C336.251 313.638 338.924 317.494 341.598 321.363C342.781 323.075 343.965 324.787 345.134 326.513C345.594 327.195 345.594 327.236 345.078 327.918C344.73 328.378 344.368 328.851 344.006 329.31C340.595 333.75 336.808 337.856 332.645 341.6C331.837 342.324 331.002 343.047 330.166 343.743C329.637 344.189 329.456 344.189 328.885 343.785C328.287 343.368 327.688 342.922 327.089 342.491C321.715 338.58 316.326 334.655 310.952 330.758C309.936 330.02 309.922 330.02 308.877 330.702C303.113 334.46 296.917 337.271 290.29 339.123C289.552 339.331 289.218 339.707 289.078 340.459C288.591 343.284 288.048 346.096 287.519 348.921C286.656 353.584 285.778 358.26 284.915 362.923C284.72 363.98 284.706 364.022 283.62 364.161C282.381 364.315 281.142 364.412 279.917 364.565C279.61 364.607 279.304 364.76 279.012 364.857C273.888 364.857 268.75 364.857 263.626 364.857C263.292 364.482 262.833 364.593 262.415 364.537C261.83 364.468 261.663 364.328 261.538 363.758C261.454 363.368 261.398 362.964 261.329 362.561C260.215 355.546 259.101 348.517 257.987 341.503C257.82 340.445 257.764 340.417 256.748 340.152C254.659 339.61 252.557 339.109 250.51 338.454C245.79 336.965 241.307 334.947 237.06 332.4C236.336 331.969 235.793 331.983 235.125 332.47C233.872 333.388 232.577 334.223 231.296 335.114C226.339 338.524 221.382 341.934 216.426 345.344C215.702 345.845 215.66 345.817 214.978 345.274C210.62 341.837 206.596 338.051 202.906 333.903C201.862 332.734 200.873 331.495 199.885 330.284C199.397 329.686 199.411 329.519 199.857 328.865C199.912 328.781 199.982 328.698 200.038 328.614C204.382 322.643 208.726 316.673 213.098 310.716C213.557 310.089 213.585 309.616 213.195 308.948C212.179 307.222 211.177 305.482 210.285 303.687C208.058 299.191 206.359 294.487 205.231 289.602C205.064 288.878 204.688 288.558 203.964 288.432C200.107 287.764 196.264 287.068 192.422 286.373C188.843 285.732 185.279 285.092 181.701 284.452C180.837 284.299 180.796 284.257 180.698 283.38C180.587 282.225 180.503 281.056 180.406 279.887C180.378 279.539 180.406 279.163 180.113 278.898C180.113 275.502 180.113 272.093 180.113 268.697C180.461 268.376 180.378 267.959 180.42 267.555C180.601 265.607 180.768 263.658 180.977 261.723C181.06 260.888 181.158 260.833 182.021 260.68C182.94 260.527 183.873 260.387 184.805 260.234C189.539 259.483 194.287 258.745 199.021 257.993C200.831 257.701 202.628 257.395 204.438 257.13C204.981 257.047 205.329 256.824 205.44 256.268C205.468 256.101 205.538 255.92 205.579 255.753C207.292 249.475 209.812 243.532 213.209 237.965C213.53 237.45 213.502 237.074 213.154 236.587C211.803 234.653 210.466 232.704 209.13 230.756C206.164 226.427 203.184 222.084 200.233 217.742C199.759 217.046 199.773 217.004 200.274 216.35C200.33 216.267 200.4 216.197 200.469 216.113C203.922 211.841 207.696 207.874 211.859 204.283C213.223 203.1 214.643 201.986 216.05 200.859C216.662 200.372 216.816 200.386 217.47 200.831C217.553 200.887 217.637 200.957 217.721 201.012C223.763 205.355 229.806 209.683 235.835 214.054C236.503 214.541 237.018 214.596 237.756 214.179C242.309 211.562 247.113 209.516 252.153 208.055C252.891 207.846 253.615 207.637 254.353 207.442C254.827 207.317 255.105 207.053 255.189 206.566C255.23 206.287 255.3 206.023 255.342 205.744C256.33 200.372 257.305 195.014 258.293 189.641C258.656 187.693 259.004 185.744 259.366 183.795C259.533 182.877 259.644 182.821 260.535 182.738C261.872 182.626 263.208 182.459 264.545 182.292C264.796 182.264 264.977 182.097 265.186 182ZM246.598 272.816C246.556 286.164 257.18 297.869 271.618 297.897C285.695 297.925 296.848 286.623 296.848 272.816C296.848 258.55 284.915 247.332 270.992 247.61C258.252 247.875 246.584 258.578 246.598 272.816Z" stroke="url(#paint2_linear)" stroke-width="2.5" stroke-miterlimit="10"/>
<path d="M174.71 210.379C153.988 210.379 106.327 207.676 81.4609 196.865" stroke="url(#paint3_linear)" stroke-width="2.5"/>
<path d="M154.438 245.516C131.013 243.263 81.7304 237.948 72 234.704" stroke="url(#paint4_linear)" stroke-width="2.5"/>
<path d="M176.062 326.603C156.24 332.009 109.03 342.01 78.7578 338.766" stroke="url(#paint5_linear)" stroke-width="2.5"/>
<path d="M157.142 291.466C139.122 291.466 98.7594 289.844 81.4609 283.357" stroke="url(#paint6_linear)" stroke-width="2.5"/>
<defs>
<filter id="filter0_d" x="0" y="0" width="454" height="479" filterUnits="userSpaceOnUse" color-interpolation-filters="sRGB">
<feFlood flood-opacity="0" result="BackgroundImageFix"/>
<feColorMatrix in="SourceAlpha" type="matrix" values="0 0 0 0 0 0 0 0 0 0 0 0 0 0 0 0 0 0 127 0"/>
<feOffset dy="4"/>
<feGaussianBlur stdDeviation="2"/>
<feColorMatrix type="matrix" values="0 0 0 0 0 0 0 0 0 0 0 0 0 0 0 0 0 0 0.25 0"/>
<feBlend mode="normal" in2="BackgroundImageFix" result="effect1_dropShadow"/>
<feBlend mode="normal" in="SourceGraphic" in2="effect1_dropShadow" result="shape"/>
</filter>
<linearGradient id="paint0_linear" x1="9" y1="64.1698" x2="513.409" y2="188.528" gradientUnits="userSpaceOnUse">
<stop stop-color="#FF00B8"/>
<stop offset="0.505208" stop-color="#FF655B"/>
<stop offset="1" stop-color="#FFC700"/>
</linearGradient>
<linearGradient id="paint1_linear" x1="241.324" y1="460.76" x2="274.667" y2="493.788" gradientUnits="userSpaceOnUse">
<stop stop-color="#FF00B8"/>
<stop offset="0.505208" stop-color="#FF655B"/>
<stop offset="1" stop-color="#FFC700"/>
</linearGradient>
<linearGradient id="paint2_linear" x1="180.113" y1="205.47" x2="390.268" y2="260.261" gradientUnits="userSpaceOnUse">
<stop stop-color="#FF00B8"/>
<stop offset="0.505208" stop-color="#FF655B"/>
<stop offset="1" stop-color="#FFC700"/>
</linearGradient>
<linearGradient id="paint3_linear" x1="81.4609" y1="198.599" x2="108.481" y2="247.2" gradientUnits="userSpaceOnUse">
<stop stop-color="#FF00B8"/>
<stop offset="0.505208" stop-color="#FF655B"/>
<stop offset="1" stop-color="#FFC700"/>
</linearGradient>
<linearGradient id="paint4_linear" x1="72" y1="236.092" x2="92.4347" y2="276.71" gradientUnits="userSpaceOnUse">
<stop stop-color="#FF00B8"/>
<stop offset="0.505208" stop-color="#FF655B"/>
<stop offset="1" stop-color="#FFC700"/>
</linearGradient>
<linearGradient id="paint5_linear" x1="78.7578" y1="328.246" x2="102.984" y2="376.266" gradientUnits="userSpaceOnUse">
<stop stop-color="#FF00B8"/>
<stop offset="0.505208" stop-color="#FF655B"/>
<stop offset="1" stop-color="#FFC700"/>
</linearGradient>
<linearGradient id="paint6_linear" x1="81.4609" y1="284.398" x2="94.8834" y2="317.055" gradientUnits="userSpaceOnUse">
<stop stop-color="#FF00B8"/>
<stop offset="0.505208" stop-color="#FF655B"/>
<stop offset="1" stop-color="#FFC700"/>
</linearGradient>
</defs>
</svg>
