<svg width="294" height="187" viewBox="0 0 294 187" fill="none" xmlns="http://www.w3.org/2000/svg">
<path d="M194.186 2C198.042 2 201.899 2 205.77 2C206.048 2.09743 206.313 2.25053 206.605 2.27836C208.374 2.4593 210.142 2.6124 211.91 2.77942C212.773 2.86293 212.927 3.02995 213.066 3.90679C213.33 5.56306 213.581 7.21932 213.846 8.87559C214.751 14.6377 215.67 20.4138 216.575 26.1759C216.672 26.844 216.964 27.1919 217.633 27.359C223.077 28.7508 228.228 30.8524 233.13 33.5943C233.826 33.984 234.355 33.9701 235.009 33.5108C237.752 31.5901 240.523 29.6972 243.28 27.8043C246.858 25.3408 250.436 22.8773 254.015 20.4277C254.794 19.8849 254.948 19.8988 255.63 20.4277C258.763 22.7799 261.7 25.3547 264.499 28.0966C267.033 30.588 269.386 33.2464 271.642 36.0022C272.408 36.9347 272.408 36.9347 271.684 37.9368C267.298 43.9495 262.926 49.9621 258.54 55.9748C258.025 56.6707 258.025 56.6985 258.498 57.4501C260.197 60.192 261.728 63.0313 263.051 65.982C264.137 68.4176 265.112 70.8951 265.864 73.47C266.045 74.1102 266.393 74.4581 267.061 74.5417C267.91 74.6669 268.76 74.8479 269.609 75.001C276.25 76.2118 282.892 77.4227 289.533 78.6336C290.578 78.8285 290.647 78.8981 290.787 79.928C291.093 82.3915 291.385 84.869 291.706 87.3325C291.733 87.5969 291.9 87.8335 291.998 88.0841C291.998 92.3569 291.998 96.6159 291.998 100.889C291.678 101.153 291.719 101.515 291.692 101.877C291.622 102.712 291.552 102.796 290.703 102.949C290.355 103.018 290.007 103.06 289.645 103.116C284.632 103.909 279.62 104.702 274.594 105.496C272.533 105.816 270.486 106.178 268.425 106.484C267.813 106.567 267.437 106.818 267.367 107.444C267.353 107.597 267.312 107.75 267.27 107.89C266.657 110.172 266.128 112.469 265.432 114.723C264.262 118.495 262.717 122.114 260.823 125.58C260.461 126.248 260.461 126.777 260.921 127.389C261.506 128.155 262.021 128.976 262.578 129.769C265.251 133.638 267.924 137.494 270.598 141.363C271.781 143.075 272.965 144.787 274.134 146.513C274.594 147.195 274.594 147.236 274.078 147.918C273.73 148.378 273.368 148.851 273.006 149.31C269.595 153.75 265.808 157.856 261.645 161.6C260.837 162.324 260.002 163.047 259.166 163.743C258.637 164.189 258.456 164.189 257.885 163.785C257.287 163.368 256.688 162.922 256.089 162.491C250.715 158.58 245.326 154.655 239.952 150.758C238.936 150.02 238.922 150.02 237.877 150.702C232.113 154.46 225.917 157.271 219.29 159.123C218.552 159.331 218.218 159.707 218.078 160.459C217.591 163.284 217.048 166.096 216.519 168.921C215.656 173.584 214.778 178.26 213.915 182.923C213.72 183.98 213.706 184.022 212.62 184.161C211.381 184.315 210.142 184.412 208.917 184.565C208.61 184.607 208.304 184.76 208.012 184.857C202.888 184.857 197.75 184.857 192.626 184.857C192.292 184.482 191.833 184.593 191.415 184.537C190.83 184.468 190.663 184.328 190.538 183.758C190.454 183.368 190.398 182.964 190.329 182.561C189.215 175.546 188.101 168.517 186.987 161.503C186.82 160.445 186.764 160.417 185.748 160.152C183.659 159.61 181.557 159.109 179.51 158.454C174.79 156.965 170.307 154.947 166.06 152.4C165.336 151.969 164.793 151.983 164.125 152.47C162.872 153.388 161.577 154.223 160.296 155.114C155.339 158.524 150.382 161.934 145.426 165.344C144.702 165.845 144.66 165.817 143.978 165.274C139.62 161.837 135.596 158.051 131.906 153.903C130.862 152.734 129.873 151.495 128.885 150.284C128.397 149.686 128.411 149.519 128.857 148.865C128.912 148.781 128.982 148.698 129.038 148.614C133.382 142.643 137.726 136.673 142.098 130.716C142.557 130.089 142.585 129.616 142.195 128.948C141.179 127.222 140.177 125.482 139.285 123.687C137.058 119.191 135.359 114.487 134.231 109.602C134.064 108.878 133.688 108.558 132.964 108.432C129.107 107.764 125.264 107.068 121.422 106.373C117.843 105.732 114.279 105.092 110.701 104.452C109.837 104.299 109.796 104.257 109.698 103.38C109.587 102.225 109.503 101.056 109.406 99.8867C109.378 99.5387 109.406 99.163 109.113 98.8985C109.113 95.5025 109.113 92.0925 109.113 88.6965C109.461 88.3763 109.378 87.9588 109.42 87.5552C109.601 85.6066 109.768 83.6581 109.977 81.7234C110.06 80.8884 110.158 80.8327 111.021 80.6796C111.94 80.5265 112.873 80.3873 113.805 80.2342C118.539 79.4826 123.287 78.745 128.021 77.9934C129.831 77.7011 131.628 77.3949 133.438 77.1304C133.981 77.0469 134.329 76.8242 134.44 76.2675C134.468 76.1005 134.538 75.9196 134.579 75.7525C136.292 69.4754 138.812 63.5324 142.209 57.9651C142.53 57.4501 142.502 57.0743 142.154 56.5872C140.803 54.6526 139.466 52.704 138.13 50.7555C135.164 46.4269 132.184 42.0844 129.233 37.7419C128.759 37.046 128.773 37.0043 129.274 36.3501C129.33 36.2666 129.4 36.197 129.469 36.1135C132.922 31.8406 136.696 27.8739 140.859 24.283C142.223 23.1 143.643 21.9865 145.05 20.8592C145.662 20.372 145.816 20.3859 146.47 20.8313C146.553 20.887 146.637 20.9566 146.721 21.0123C152.763 25.3547 158.806 29.6833 164.835 34.0536C165.503 34.5408 166.018 34.5964 166.756 34.1789C171.309 31.5623 176.113 29.5163 181.153 28.0549C181.891 27.8461 182.615 27.6373 183.353 27.4425C183.827 27.3172 184.105 27.0528 184.189 26.5656C184.23 26.2873 184.3 26.0228 184.342 25.7444C185.33 20.372 186.305 15.0135 187.293 9.64109C187.656 7.69254 188.004 5.744 188.366 3.79545C188.533 2.87685 188.644 2.82117 189.535 2.73766C190.872 2.62632 192.208 2.4593 193.545 2.29228C193.796 2.26445 193.977 2.09743 194.186 2ZM175.598 92.8163C175.556 106.164 186.18 117.869 200.618 117.897C214.695 117.925 225.848 106.623 225.848 92.8163C225.848 78.5501 213.915 67.332 199.992 67.6104C187.252 67.8748 175.584 78.5779 175.598 92.8163Z" stroke="url(#paint0_linear)" stroke-width="2.5" stroke-miterlimit="10"/>
<path d="M103.71 30.3789C82.9883 30.3789 35.3275 27.676 10.4609 16.8645" stroke="url(#paint1_linear)" stroke-width="2.5"/>
<path d="M83.438 65.5158C60.013 63.2634 10.7304 57.9477 1 54.7042" stroke="url(#paint2_linear)" stroke-width="2.5"/>
<path d="M105.062 146.603C85.2405 152.009 38.0301 162.01 7.75781 158.766" stroke="url(#paint3_linear)" stroke-width="2.5"/>
<path d="M86.1417 111.466C68.1225 111.466 27.7594 109.844 10.4609 103.357" stroke="url(#paint4_linear)" stroke-width="2.5"/>
<defs>
<linearGradient id="paint0_linear" x1="109.113" y1="25.4699" x2="319.268" y2="80.2611" gradientUnits="userSpaceOnUse">
<stop stop-color="#FF00B8"/>
<stop offset="0.505208" stop-color="#FF655B"/>
<stop offset="1" stop-color="#FFC700"/>
</linearGradient>
<linearGradient id="paint1_linear" x1="10.4609" y1="18.5991" x2="37.4811" y2="67.1999" gradientUnits="userSpaceOnUse">
<stop stop-color="#FF00B8"/>
<stop offset="0.505208" stop-color="#FF655B"/>
<stop offset="1" stop-color="#FFC700"/>
</linearGradient>
<linearGradient id="paint2_linear" x1="1" y1="56.0919" x2="21.4347" y2="96.7095" gradientUnits="userSpaceOnUse">
<stop stop-color="#FF00B8"/>
<stop offset="0.505208" stop-color="#FF655B"/>
<stop offset="1" stop-color="#FFC700"/>
</linearGradient>
<linearGradient id="paint3_linear" x1="7.75781" y1="148.246" x2="31.9837" y2="196.266" gradientUnits="userSpaceOnUse">
<stop stop-color="#FF00B8"/>
<stop offset="0.505208" stop-color="#FF655B"/>
<stop offset="1" stop-color="#FFC700"/>
</linearGradient>
<linearGradient id="paint4_linear" x1="10.4609" y1="104.398" x2="23.8834" y2="137.055" gradientUnits="userSpaceOnUse">
<stop stop-color="#FF00B8"/>
<stop offset="0.505208" stop-color="#FF655B"/>
<stop offset="1" stop-color="#FFC700"/>
</linearGradient>
</defs>
</svg>
