<svg width="446" height="471" viewBox="0 0 446 471" fill="none" xmlns="http://www.w3.org/2000/svg">
<rect x="2.5" y="2.5" width="441" height="466" rx="99.5" fill="white" stroke="url(#paint0_linear)" stroke-width="5"/>
<path d="M130.182 378.537C130 376.28 129.874 374.727 129.699 372.552C131.482 372.822 133.568 373.008 135.593 373.469C138.519 374.134 139.671 373.447 139.968 370.389C140.116 368.852 140.588 367.018 139.973 365.794C138.03 361.918 140.692 360.254 143.058 358.459C146.68 355.708 147.229 354.33 145.522 350.113C145.116 349.114 144.145 348.28 143.278 347.555C141.691 346.232 140.023 345.002 138.327 343.816C135.972 342.163 133.645 340.445 131.153 339.023C129.106 337.859 126.839 337.09 124.194 335.937C122.739 332.166 119.303 329.075 117.102 329.162C115.044 327.373 113.491 326.022 111.932 324.666C113.869 320.647 111.131 317.375 109.863 314.004C108.683 310.869 106.339 308.453 103.397 306.432C101.405 305.065 100.065 302.49 98.9128 300.217C97.0796 296.605 95.7623 292.729 93.9456 289.11C93.4626 288.144 91.6568 287.908 90.9762 286.969C89.4284 284.822 88.2045 282.445 86.7335 279.975C84.3953 280.595 86.02 278.333 85.7071 276.543C84.1264 277.449 82.8475 278.179 81.3382 279.036C79.73 276.576 79.0165 273.408 79.4501 269.988C79.8288 266.995 80.3502 264.025 80.7838 261.038C80.9155 260.138 81.1955 259.155 80.9869 258.321C79.8782 253.934 81.7443 250.074 82.9189 246.066C84.4557 240.834 85.773 235.536 87.3921 230.325C88.1166 227.998 89.3406 225.823 90.4109 223.413C92.9137 225.467 92.1343 227.833 91.5031 229.985C90.8116 232.346 89.6589 234.564 88.8356 236.892C88.4899 237.869 88.4679 238.962 88.3032 240.005C88.5832 240.082 88.8631 240.153 89.143 240.23C90.2572 237.062 91.5141 233.933 92.4472 230.71C93.4955 227.119 95.6086 224.39 98.9677 223.051C101.652 221.975 103.293 220.586 104.165 217.714C105.044 214.843 111.663 211.043 114.418 211.252C117.02 206.992 117.657 206.701 126.455 205.981C124.462 206.975 123.057 207.672 121.652 208.375C121.784 208.65 121.921 208.924 122.053 209.199C125.297 208.134 129.287 208.88 131.669 205.185C131.246 205.015 131.076 204.878 130.939 204.905C129.814 205.125 128.694 205.372 127.575 205.614C127.789 204.378 127.816 203.066 128.272 201.93C128.672 200.93 129.556 200.118 130.456 198.926C129.402 198.679 128.491 198.465 127.58 198.251C127.52 198.053 127.454 197.861 127.393 197.664C129.002 197.263 130.637 196.434 132.207 196.554C135.215 196.791 138.184 197.57 140.868 198.064C139.117 199.602 136.834 201.617 134.095 204.027C136.669 204.043 136.916 206.838 139.068 206.893C139.776 206.909 140.747 207.025 141.148 206.629C142.394 205.405 142.224 202.182 140.813 200.573C142.185 198.954 143.486 197.175 145.034 195.643C146.834 193.864 145.841 191.723 145.912 189.812C145.978 187.962 145.654 186.491 147.476 185.058C148.783 184.031 149.299 182 150.473 179.864C148.689 180.578 147.438 181.077 146.192 181.577C145.989 181.401 145.791 181.231 145.588 181.055C146.143 180.149 146.642 179.194 147.279 178.349C147.652 177.854 148.558 177.624 148.695 177.124C148.997 176.07 148.953 174.912 149.052 173.797C148.064 173.912 146.834 173.693 146.126 174.203C143.503 176.087 141.049 178.206 138.535 180.248C138.25 180.479 138.047 180.808 137.745 181.006C133.81 183.526 129.869 186.03 125.406 188.868C126.372 187.413 126.883 185.953 127.904 185.239C131.087 183.015 132.13 179.463 134.018 176.416C134.841 175.087 136.203 173.874 137.602 173.16C141.153 171.337 144.864 169.822 149.189 167.878C148.816 169.07 148.684 169.487 148.464 170.19C151.489 171.442 151.955 167.351 154.529 167.242C156.917 167.143 159.249 165.682 161.571 164.831C160.836 162.212 161.681 161.521 166.577 160.346C162.74 163.305 162.74 163.305 164.189 164.958C161.879 169.663 156.856 169.147 153.042 170.635C152.8 172.512 152.581 174.242 152.273 176.663C153.591 175.757 154.326 175.252 155.095 174.725C155.232 175.17 155.353 175.565 155.66 176.553C157.504 174.406 159.101 172.545 161.225 170.069C160.764 171.453 160.545 172.106 160.194 173.16C162.79 172.655 164.766 172.15 165.188 169.257C165.314 168.378 166.242 167.604 166.846 166.813C167.653 165.754 168.52 164.744 169.316 163.678C169.996 162.772 170.605 161.817 171.281 160.834C170.671 159.918 169.914 158.765 168.877 157.2C170.315 156.821 171.429 156.53 172.872 156.151C172.801 157.595 172.757 158.539 172.68 160.23C174.162 159.566 175.238 159.083 175.589 158.929C177.598 158.627 178.937 158.496 180.244 158.216C184.294 157.354 188.328 156.442 192.324 155.558C189.163 153.175 184.997 156.442 181.517 153.895C184.514 153.472 187.5 152.945 190.507 152.643C206.139 151.084 221.573 152.335 236.661 156.678C240.948 157.914 245.449 159.127 248.813 162.531C249.433 163.157 250.317 163.618 251.162 163.92C254.774 165.21 256.206 167.604 255.114 171.519C254.302 171.239 253.495 170.964 252.864 170.744C254.236 172.485 255.658 174.286 257.288 176.345C254.56 178.008 252.99 176.388 250.937 174.857C252.156 174.621 252.968 174.461 253.78 174.302C253.885 174.039 253.984 173.781 254.088 173.517C252.655 172.781 251.3 171.744 249.779 171.365C246.173 170.464 242.496 169.86 238.84 169.163C236.738 168.762 233.89 172.117 234.202 174.154C234.636 176.981 235.426 179.782 232.572 182.302C229.411 185.096 231.041 190.416 235.157 191.525C235.904 191.728 237.111 191.245 237.732 190.674C239.065 189.45 240.07 189.543 241.178 190.861C242.408 192.321 243.599 193.837 244.993 195.127C245.586 195.676 247.178 196.165 247.414 195.896C248.138 195.067 248.742 193.875 248.813 192.788C248.907 191.344 248.577 189.829 248.177 188.418C247.957 187.66 247.337 186.853 246.667 186.414C244.45 184.959 242.655 183.548 244.186 180.435C244.543 179.716 243.808 178.458 243.489 177.086C245.602 176.795 246.964 177.377 246.722 179.672C246.415 182.615 248.237 184.218 250.18 185.722C251.42 186.683 252.82 187.364 254.335 185.859C254.703 185.491 255.652 185.706 256.558 185.634C255.328 187.012 254.494 187.951 253.654 188.895C254.807 189.576 255.959 190.252 257.112 190.932C257.041 191.119 256.964 191.311 256.892 191.498C256.152 191.454 255.416 191.416 254.088 191.339C254.642 192.601 254.999 193.551 255.465 194.446C256.459 196.324 255.778 197.592 253.72 197.625C253.358 197.631 252.842 197.471 252.661 197.653C250.443 199.909 247.567 198.74 245.092 199.179C245.092 198.311 245.405 197.224 244.993 196.631C244.658 196.148 243.462 196.258 242.463 196.071C242.035 195.253 241.497 194.227 240.959 193.2C238.84 194.364 238.84 194.364 241.431 200.469C238.687 201.1 236.958 202.413 236.03 205.487C235.339 207.782 232.753 209.578 230.821 211.384C230.349 211.823 229.12 211.45 228.083 211.45C228.192 211.911 228.324 212.465 228.456 213.036C226.826 213.294 225.223 213.547 223.62 213.8C223.593 214.102 223.565 214.409 223.538 214.711C224.191 215.002 224.828 215.359 225.508 215.562C228.736 216.539 231.217 220.064 231.008 223.386C230.876 225.472 229.982 226.576 227.731 226.438C224.822 226.257 221.902 226.12 218.993 226.186C217.918 226.208 216.858 226.856 215.788 227.218C216.326 230.968 217.429 234.399 215.42 237.897C214.959 238.698 216.381 240.422 216.551 241.773C216.82 243.963 218.335 243.156 219.57 243.486C221.041 243.876 222.341 244.891 223.324 245.418C225.777 244.968 228.033 244.496 230.3 244.15C232.995 243.738 235.624 239.632 235.048 236.947C234.537 234.575 235.855 232.889 237.83 231.824C239.554 230.902 240.492 229.782 240.191 227.696C239.889 225.582 241.48 225.401 242.864 225.796C245.037 226.422 246.651 225.73 247.99 224.176C249.845 222.024 251.157 223.325 252.776 224.583C255.103 226.383 257.633 227.921 260.087 229.557C261.821 230.71 263.704 231.693 265.268 233.038C265.96 233.636 266.514 235.135 266.24 235.898C265.965 236.661 264.61 237.133 263.644 237.507C262.886 237.803 261.991 237.759 261.163 237.864C261.108 238.177 261.053 238.495 260.993 238.808C262.65 239.467 264.302 240.126 266.355 240.938C265.943 237.43 270.312 234.784 266.229 231.27C267.645 231.27 268.397 231.27 269.928 231.27C267.019 228.689 263.676 228.151 261.19 226.367C258.742 224.61 255.46 223.073 255.197 219.175C255.745 219.087 256.141 218.911 256.245 219.015C259.066 221.953 262.886 223.034 266.454 224.599C268.528 225.51 270.191 226.79 270.784 229.189C270.987 230.018 271.63 230.803 272.228 231.462C273.979 233.389 275.784 235.261 277.618 237.106C278.134 237.628 278.809 237.99 279.561 238.534C279.758 236.65 279.906 235.195 280.088 233.504C278.886 232.357 277.409 230.946 276.125 229.722C276.811 229.096 277.261 228.673 277.727 228.267C278.254 227.805 278.957 226.889 279.308 227.004C280.115 227.273 281.048 227.899 281.41 228.634C282.354 230.529 282.826 232.758 284.78 233.9C286.773 235.064 288.738 237.479 291.306 234.751C291.46 234.586 291.899 234.482 292.075 234.58C294.374 235.876 295.626 234.685 296.416 232.192C299.567 236.442 300.247 240.861 300.423 245.402C300.445 245.929 299.902 246.945 299.622 246.945C295.878 246.945 293.452 251.233 289.363 250.036C287.634 249.531 285.867 249.08 284.089 248.85C282.826 248.691 281.064 248.466 280.345 249.141C279.533 249.899 279.615 251.633 279.358 252.957C279.16 253.967 279.242 255.092 278.787 255.954C278.639 256.24 277.157 255.987 276.366 255.729C273.957 254.944 271.3 254.851 269.522 252.402C268.94 251.601 266.975 251.765 265.625 251.579C264.363 251.403 263.04 251.518 261.827 251.194C259.807 250.656 258.479 249.931 259.494 247.12C259.994 245.737 258.819 243.469 257.864 241.938C257.101 240.713 255.718 241.119 254.247 241.756C252.249 242.624 249.905 243.074 247.721 243.058C243.193 243.019 239.17 243.887 235.531 246.829C232.731 249.091 229.082 248.888 226.096 247.626C223.313 246.445 222.627 247.862 222.287 249.651C221.919 251.584 220.761 252.397 219.279 253.198C215.843 255.054 214.806 258.255 214.712 261.856C214.63 265.03 212.204 266.995 210.063 267.742C205.892 269.203 204.355 272.628 202.324 275.758C199.712 279.788 197.324 283.971 194.964 287.886C199.185 293.964 196.523 299.41 194.338 304.758C193.811 306.054 193.235 306.872 194.262 308.129C194.695 308.662 194.64 309.606 194.777 310.364C194.909 311.061 194.767 311.967 195.156 312.433C196.874 314.465 198.768 316.348 200.557 318.319C201.765 319.648 203.51 320.861 203.955 322.426C205.008 326.126 207.687 327.812 210.749 329.355C211.957 329.964 213.115 330.716 214.169 331.567C216.886 333.747 219.734 334.082 223.148 333.291C226.54 332.506 230.141 332.66 233.615 332.16C235.366 331.908 237.057 331.161 238.758 330.595C242.276 329.431 245.74 328.059 249.318 327.12C251.497 326.544 253.396 327.219 254.417 329.695C254.675 330.321 256.437 330.941 257.172 330.667C265.06 327.757 265.142 331.562 263.709 337.079C263.347 338.485 262.864 339.89 262.211 341.175C261.272 343.014 261.733 344.409 263.342 345.408C267.809 348.181 267.711 352.419 268.336 357.097C269.132 363.032 263.989 364.943 262.376 369.083C261.426 371.504 260.685 373.519 261.53 376.099C261.926 377.307 261.465 378.8 261.371 380.162C261.272 381.655 261.064 383.149 261.053 384.642C261.036 386.838 259.823 388.266 258.067 389.161C248.072 394.272 237.485 397.737 226.48 399.763C200.777 404.495 175.88 401.69 151.95 391.077C143.997 387.58 136.455 383.314 130.182 378.537ZM205.941 158.726C197.901 155.91 189.596 157.123 181.061 159.544C182.527 161.872 178.74 166.731 174.865 168.351C175.079 168.806 175.293 169.257 175.534 169.767C170.375 170.684 168.602 174.121 166.44 178.568C165.732 180.023 166.994 183.669 168.344 184.421C168.69 184.613 169.349 184.69 169.623 184.492C172.384 182.499 175.062 180.396 177.829 178.409C178.86 177.668 180.002 176.998 181.193 176.586C182.373 176.18 183.712 176.246 184.931 175.916C188.68 174.906 192.379 173.693 196.15 172.77C200.617 171.672 200.82 171.508 199.838 167.346C203.812 166.473 204.706 165.655 205.085 162.778C205.25 161.515 205.607 160.274 205.941 158.726ZM217.358 194.518C219.597 196.807 221.963 199.234 224.564 201.897C223.384 202.336 222.66 202.605 222.281 202.748C222.127 204.115 222.001 205.196 221.869 206.366C222.457 206.574 223.264 206.86 224.175 207.184C223.099 208.134 222.21 208.924 221.167 209.847C225.025 209.039 228.516 208.315 231.853 207.617C231.798 206.838 231.815 206.212 231.7 205.603C231.579 204.971 231.518 204.181 231.118 203.774C229.334 201.968 227.435 200.277 225.585 198.531C224.806 197.795 224.048 197.032 223.253 196.253C223.395 195.852 223.543 195.522 223.631 195.182C223.736 194.77 223.796 194.347 223.856 194.018C221.677 192.964 219.658 190.559 217.358 194.518ZM213.433 206.849C215.096 206.19 217.462 205.948 218.527 204.636C219.515 203.423 219.109 201.079 219.317 199.234C218.099 199.173 216.655 198.679 215.722 199.168C214.602 199.75 213.56 201.046 213.153 202.259C212.78 203.401 213.269 204.834 213.433 206.849ZM197.192 178.014C197.264 180.309 198.126 182.521 201.677 181.978C202.928 181.785 204.234 181.5 205.332 180.913C206.04 180.528 206.413 179.523 206.94 178.793C206.062 178.327 205.184 177.476 204.3 177.47C201.962 177.454 199.624 177.8 197.192 178.014ZM91.7666 264.651C90.8829 262.411 89.9992 260.171 89.1156 257.931C87.1177 262.334 87.1177 262.334 91.7666 264.651ZM86.6182 255.784C86.8707 255.746 87.1177 255.713 87.3702 255.674C88.1276 251.793 86.8982 244.392 85.4985 243.7C85.8663 247.686 86.245 251.732 86.6182 255.784ZM225.333 161.482C223.456 160.554 221.633 158.397 218.576 160.478C220.541 161.581 222.287 162.558 223.823 163.42C224.339 162.751 224.795 162.174 225.333 161.482Z" stroke="url(#paint1_linear)" stroke-width="2" stroke-miterlimit="10"/>
<path d="M320.824 284.943C326.373 271.656 328.069 259.078 322.651 246.335C322.333 246.324 322.015 246.313 321.696 246.297C321.696 247.708 321.696 249.124 321.696 250.782C316.477 245.792 314.649 242.646 315.478 240.861C316.515 242.036 317.635 243.31 319.051 244.913C319.962 243.535 320.324 242.997 320.659 242.486C321.416 242.706 322.201 242.931 323.502 243.31C332.569 278.399 328.014 311.917 309.056 343.377C308.803 343.311 308.546 343.25 308.293 343.184C310.582 336.371 312.755 329.514 315.187 322.749C318.31 314.075 322.734 305.845 324.188 296.61C324.946 291.806 325.44 286.958 326.054 282.127C325.796 282.072 325.544 282.022 325.286 281.967C324.172 284.202 323.052 286.436 321.927 288.687C321.438 288.506 321.06 288.484 320.966 288.314C318.853 284.454 316.811 280.551 314.66 276.708C312.657 273.122 310.478 269.642 308.502 266.04C306.548 262.482 304.758 258.837 302.579 254.614C303.765 254.993 305.159 254.999 305.675 255.68C308.513 259.402 312.003 262.718 313.249 267.517C313.54 268.637 314.737 269.51 315.45 270.536C317.448 273.408 319.204 276.351 319.424 280.013C319.512 281.418 320.187 282.785 320.824 284.943Z" stroke="url(#paint2_linear)" stroke-width="2" stroke-miterlimit="10"/>
<path d="M78.944 296.016C78.6312 286.408 78.3129 276.8 78 267.192C78.2525 267.186 78.505 267.175 78.7574 267.17C78.7574 269.811 78.7245 272.452 78.7739 275.092C78.7959 276.179 78.741 277.376 79.1636 278.326C81.7542 284.129 80.7663 290.015 79.932 295.912C79.6027 295.95 79.2734 295.983 78.944 296.016Z" stroke="url(#paint3_linear)" stroke-width="2" stroke-miterlimit="10"/>
<path d="M296.024 359.195C298.186 356.614 300.349 354.034 302.511 351.453C302.709 351.607 302.901 351.755 303.099 351.909C300.986 354.544 298.872 357.18 296.765 359.815C296.518 359.607 296.271 359.403 296.024 359.195Z" stroke="url(#paint4_linear)" stroke-width="2" stroke-miterlimit="10"/>
<path d="M100.009 111.6L103.579 107.89C106.099 110.55 108.783 112.58 111.629 113.98C114.523 115.333 117.556 116.01 120.729 116.01C124.556 116.01 127.706 115.1 130.179 113.28C132.653 111.46 133.889 109.15 133.889 106.35C133.889 103.83 133.003 101.893 131.229 100.54C129.503 99.1867 126.633 98.1833 122.619 97.53L115.549 96.41C110.836 95.6633 107.359 94.2867 105.119 92.28C102.879 90.2267 101.759 87.4733 101.759 84.02C101.759 79.96 103.346 76.67 106.519 74.15C109.693 71.63 113.846 70.37 118.979 70.37C122.386 70.37 125.769 70.93 129.129 72.05C132.489 73.17 135.546 74.78 138.299 76.88L135.219 81.08C132.559 79.0733 129.853 77.5567 127.099 76.53C124.346 75.5033 121.569 74.99 118.769 74.99C115.269 74.99 112.423 75.8067 110.229 77.44C108.083 79.0267 107.009 81.08 107.009 83.6C107.009 85.8867 107.779 87.6367 109.319 88.85C110.859 90.0633 113.403 90.95 116.949 91.51L123.949 92.63C129.269 93.5167 133.143 95.0333 135.569 97.18C138.043 99.3267 139.279 102.29 139.279 106.07C139.279 108.217 138.813 110.2 137.879 112.02C136.993 113.793 135.709 115.333 134.029 116.64C132.396 117.9 130.413 118.903 128.079 119.65C125.793 120.35 123.273 120.7 120.519 120.7C116.646 120.7 112.913 119.93 109.319 118.39C105.773 116.803 102.669 114.54 100.009 111.6ZM162.686 115.94C164.552 115.94 166.349 115.567 168.076 114.82C169.802 114.073 171.412 112.977 172.906 111.53L176.126 115.03C174.259 116.803 172.159 118.18 169.826 119.16C167.492 120.14 165.066 120.63 162.546 120.63C160.072 120.63 157.739 120.163 155.546 119.23C153.352 118.297 151.462 117.013 149.876 115.38C148.289 113.747 147.029 111.81 146.096 109.57C145.162 107.33 144.696 104.95 144.696 102.43C144.696 99.91 145.162 97.5533 146.096 95.36C147.029 93.12 148.289 91.1833 149.876 89.55C151.462 87.9167 153.352 86.6333 155.546 85.7C157.739 84.72 160.072 84.23 162.546 84.23C165.066 84.23 167.516 84.72 169.896 85.7C172.322 86.68 174.446 88.0333 176.266 89.76L172.976 93.54C171.576 92.0933 169.966 90.9733 168.146 90.18C166.326 89.3867 164.482 88.99 162.616 88.99C160.842 88.99 159.162 89.34 157.576 90.04C155.989 90.74 154.612 91.6967 153.446 92.91C152.326 94.1233 151.439 95.5467 150.786 97.18C150.132 98.8133 149.806 100.563 149.806 102.43C149.806 104.343 150.132 106.14 150.786 107.82C151.486 109.453 152.396 110.877 153.516 112.09C154.682 113.257 156.059 114.19 157.646 114.89C159.232 115.59 160.912 115.94 162.686 115.94ZM184.784 78.21C183.851 78.21 183.034 77.86 182.334 77.16C181.634 76.46 181.284 75.6433 181.284 74.71C181.284 73.73 181.634 72.9133 182.334 72.26C183.034 71.56 183.851 71.21 184.784 71.21C185.764 71.21 186.581 71.56 187.234 72.26C187.934 72.9133 188.284 73.73 188.284 74.71C188.284 75.6433 187.934 76.46 187.234 77.16C186.581 77.86 185.764 78.21 184.784 78.21ZM187.374 84.93V120H182.194V84.93H187.374ZM225.748 116.29C223.788 117.737 221.735 118.833 219.588 119.58C217.488 120.28 215.178 120.63 212.658 120.63C210.138 120.63 207.758 120.163 205.518 119.23C203.325 118.297 201.411 117.013 199.778 115.38C198.191 113.747 196.931 111.833 195.998 109.64C195.065 107.4 194.598 104.997 194.598 102.43C194.598 99.91 195.041 97.5533 195.928 95.36C196.861 93.1667 198.098 91.2533 199.638 89.62C201.178 87.9867 202.998 86.7033 205.098 85.77C207.245 84.8367 209.508 84.37 211.888 84.37C214.221 84.37 216.391 84.8367 218.398 85.77C220.451 86.7033 222.201 87.9867 223.648 89.62C225.141 91.2533 226.308 93.1667 227.148 95.36C228.035 97.5533 228.478 99.91 228.478 102.43V104.04H199.708C200.081 107.493 201.505 110.363 203.978 112.65C206.451 114.937 209.415 116.08 212.868 116.08C214.688 116.08 216.461 115.8 218.188 115.24C219.915 114.68 221.361 113.887 222.528 112.86L225.748 116.29ZM211.748 88.92C208.715 88.92 206.078 89.9467 203.838 92C201.645 94.0533 200.315 96.69 199.848 99.91H223.298C222.831 96.83 221.501 94.24 219.308 92.14C217.161 89.9933 214.641 88.92 211.748 88.92ZM235.72 120V84.93H240.9V89.06C242.253 87.4733 243.863 86.2833 245.73 85.49C247.596 84.65 249.673 84.23 251.96 84.23C255.926 84.23 259.17 85.49 261.69 88.01C264.21 90.53 265.47 93.7967 265.47 97.81V120H260.36V98.86C260.36 95.78 259.473 93.33 257.7 91.51C255.926 89.69 253.546 88.78 250.56 88.78C248.46 88.78 246.57 89.2467 244.89 90.18C243.256 91.1133 241.926 92.4433 240.9 94.17V120H235.72ZM290.518 115.94C292.384 115.94 294.181 115.567 295.908 114.82C297.634 114.073 299.244 112.977 300.738 111.53L303.958 115.03C302.091 116.803 299.991 118.18 297.658 119.16C295.324 120.14 292.898 120.63 290.378 120.63C287.904 120.63 285.571 120.163 283.378 119.23C281.184 118.297 279.294 117.013 277.708 115.38C276.121 113.747 274.861 111.81 273.928 109.57C272.994 107.33 272.528 104.95 272.528 102.43C272.528 99.91 272.994 97.5533 273.928 95.36C274.861 93.12 276.121 91.1833 277.708 89.55C279.294 87.9167 281.184 86.6333 283.378 85.7C285.571 84.72 287.904 84.23 290.378 84.23C292.898 84.23 295.348 84.72 297.728 85.7C300.154 86.68 302.278 88.0333 304.098 89.76L300.808 93.54C299.408 92.0933 297.798 90.9733 295.978 90.18C294.158 89.3867 292.314 88.99 290.448 88.99C288.674 88.99 286.994 89.34 285.408 90.04C283.821 90.74 282.444 91.6967 281.278 92.91C280.158 94.1233 279.271 95.5467 278.618 97.18C277.964 98.8133 277.638 100.563 277.638 102.43C277.638 104.343 277.964 106.14 278.618 107.82C279.318 109.453 280.228 110.877 281.348 112.09C282.514 113.257 283.891 114.19 285.478 114.89C287.064 115.59 288.744 115.94 290.518 115.94ZM338.199 116.29C336.239 117.737 334.186 118.833 332.039 119.58C329.939 120.28 327.629 120.63 325.109 120.63C322.589 120.63 320.209 120.163 317.969 119.23C315.776 118.297 313.862 117.013 312.229 115.38C310.642 113.747 309.382 111.833 308.449 109.64C307.516 107.4 307.049 104.997 307.049 102.43C307.049 99.91 307.492 97.5533 308.379 95.36C309.312 93.1667 310.549 91.2533 312.089 89.62C313.629 87.9867 315.449 86.7033 317.549 85.77C319.696 84.8367 321.959 84.37 324.339 84.37C326.672 84.37 328.842 84.8367 330.849 85.77C332.902 86.7033 334.652 87.9867 336.099 89.62C337.592 91.2533 338.759 93.1667 339.599 95.36C340.486 97.5533 340.929 99.91 340.929 102.43V104.04H312.159C312.532 107.493 313.956 110.363 316.429 112.65C318.902 114.937 321.866 116.08 325.319 116.08C327.139 116.08 328.912 115.8 330.639 115.24C332.366 114.68 333.812 113.887 334.979 112.86L338.199 116.29ZM324.199 88.92C321.166 88.92 318.529 89.9467 316.289 92C314.096 94.0533 312.766 96.69 312.299 99.91H335.749C335.282 96.83 333.952 94.24 331.759 92.14C329.612 89.9933 327.092 88.92 324.199 88.92Z" fill="#151371"/>
<defs>
<linearGradient id="paint0_linear" x1="5" y1="64.1698" x2="509.409" y2="188.528" gradientUnits="userSpaceOnUse">
<stop stop-color="#FF00B8"/>
<stop offset="0.505208" stop-color="#FF655B"/>
<stop offset="1" stop-color="#FFC700"/>
</linearGradient>
<linearGradient id="paint1_linear" x1="79.3254" y1="184.086" x2="336.966" y2="243.487" gradientUnits="userSpaceOnUse">
<stop stop-color="#FF00B8"/>
<stop offset="0.505208" stop-color="#FF655B"/>
<stop offset="1" stop-color="#FFC700"/>
</linearGradient>
<linearGradient id="paint2_linear" x1="302.579" y1="254.019" x2="333.646" y2="256.027" gradientUnits="userSpaceOnUse">
<stop stop-color="#FF00B8"/>
<stop offset="0.505208" stop-color="#FF655B"/>
<stop offset="1" stop-color="#FFC700"/>
</linearGradient>
<linearGradient id="paint3_linear" x1="78" y1="270.872" x2="81.475" y2="270.961" gradientUnits="userSpaceOnUse">
<stop stop-color="#FF00B8"/>
<stop offset="0.505208" stop-color="#FF655B"/>
<stop offset="1" stop-color="#FFC700"/>
</linearGradient>
<linearGradient id="paint4_linear" x1="296.024" y1="352.527" x2="304.304" y2="354.353" gradientUnits="userSpaceOnUse">
<stop stop-color="#FF00B8"/>
<stop offset="0.505208" stop-color="#FF655B"/>
<stop offset="1" stop-color="#FFC700"/>
</linearGradient>
</defs>
</svg>
