<svg width="91" height="86" viewBox="0 0 91 86" fill="none" xmlns="http://www.w3.org/2000/svg">
<path d="M45.3326 85.9756C70.3691 85.9756 90.6652 66.7293 90.6652 42.9878C90.6652 19.2463 70.3691 0 45.3326 0C20.2961 0 0 19.2463 0 42.9878C0 66.7293 20.2961 85.9756 45.3326 85.9756Z" fill="#141471"/>
<path d="M69.1106 62.0518L57.3054 50.2465C60.1423 46.8408 61.5569 42.4725 61.2551 38.0503C60.9532 33.6282 58.9581 29.4926 55.6847 26.504C52.4114 23.5154 48.1119 21.9038 43.6805 22.0044C39.2492 22.1051 35.0273 23.9104 31.8931 27.0446C28.7589 30.1788 26.9536 34.4007 26.853 38.832C26.7523 43.2633 28.3639 47.5629 31.3525 50.8362C34.3411 54.1096 38.4767 56.1047 42.8989 56.4066C47.321 56.7084 51.6893 55.2938 55.095 52.4569L66.9003 64.2621L69.1106 62.0518ZM30.0308 39.251C30.0308 36.4685 30.8559 33.7484 32.4018 31.4349C33.9477 29.1213 36.1449 27.318 38.7157 26.2532C41.2864 25.1884 44.1151 24.9098 46.8442 25.4526C49.5733 25.9955 52.0801 27.3354 54.0476 29.3029C56.0152 31.2705 57.3551 33.7773 57.898 36.5064C58.4408 39.2354 58.1622 42.0642 57.0974 44.6349C56.0325 47.2056 54.2293 49.4029 51.9157 50.9488C49.6021 52.4947 46.8821 53.3198 44.0995 53.3198C40.3695 53.3156 36.7935 51.8321 34.156 49.1946C31.5185 46.5571 30.0349 42.981 30.0308 39.251Z" fill="#EAEAEA"/>
</svg>
